<ttFont>
          <CharString index="0">
            75 -107 callgsubr
            return
          </CharString>
          <CharString index="1">
            -9 252 43 rmoveto
            14 2 39 29 61 vhcurveto
            15 -19 callgsubr
            -1 -2 0 vvcurveto
            -100 callgsubr
            -27 35 -19 24 51 109 105 44 47 9 callgsubr
            -10 11 -28 callsubr
            -21 -23 -95 -84 -18 -59 callgsubr
            hvcurveto
            return
          </CharString>
          <CharString index="2">
            179 631 624 rmoveto
            -78 callgsubr
            -130 18 109 -27 23 hhcurveto
            24 32 rlineto
            -49 callsubr
            -14 16 -17 17 rrcurveto
            56 70 55 93 61 vvcurveto
            -509 -622 -74 callsubr
            58 -58 rlineto
            -201 -95 -152 -131 -37 hhcurveto
            return
          </CharString>
          <CharString index="3">
            128 495 401 rmoveto
            -73 callgsubr
            -54 23 -30 -37 callsubr
            -12 -96 callsubr
            return
          </CharString>
          <CharString index="4">
            -94 36 50 rmoveto
            -82 callsubr
            47 60 33 47 44 vhcurveto
            -76 callsubr
            -4 9 -33 44 -14 15 -3 -3 rcurveline
            -31 -30 -21 -44 0 vvcurveto
            -12 -23 -1 -18 -13 vvcurveto
            -4 24 callsubr
            -7 vhcurveto
            -36 -26 -27 -27 -15 hhcurveto
            -7 -4 5 10 hvcurveto
            return
          </CharString>
          <CharString index="5">
            25 -15 -71 82 -62 -52 callgsubr
            36 -6 60 -3 31 -4 -2 17 -58 63 20 110 rrcurveto
            65 13 58 85 100 hhcurveto
            22 23 -16 -47 -311 -308 -324 -136 -10 -18 18 21 46 69 169 93 108 hvcurveto
            -75 callsubr
            -20 9 63 -86 54 hhcurveto
            return
          </CharString>
          <CharString index="6">
            rmoveto
            -7 5 -26 31 -100 callsubr
          </CharString>
          <CharString index="7">
            -101 callgsubr
            endchar
          </CharString>
          <CharString index="8">
            -24 -41 -53 -43 0 vvcurveto
            -42 callgsubr
            15 16 36 47 47 hvcurveto
            0 51 52 58 31 vhcurveto
            0 2 1 -1 1 vhcurveto
            -5 8 -32 19 -15 5 -29 callgsubr
            -69 -20 -65 -59 0 vvcurveto
            -99 -90 -9 -88 -7 -55 callsubr
            return
          </CharString>
          <CharString index="9">
            rmoveto
            7 -57 38 -17 -7 -35 -61 -20 -7 62 -30 9 9 36 65 8 vhcurveto
            return
          </CharString>
          <CharString index="10">
            -25 20 -27 24 -39 31 rrcurveto
            -56 -44 -153 -148 -82 16 callsubr
            18 20 115 116 142 164 69 hvcurveto
            -54 32 -32 24 64 vvcurveto
            112 136 111 75 30 10 -19 -24 -60 -48 -83 -50 -41 vhcurveto
            return
          </CharString>
          <CharString index="11">
            vlineto
            -62 3 90 -101 93 -98 callgsubr
            return
          </CharString>
          <CharString index="12">
            rmoveto
            2 -34 10 -67 8 -31 rrcurveto
            -7 20 18 -3 24 hhcurveto
            45 32 42 42 44 44 -11 12 -9 13 -13 8 -36 -36 -30 -27 -37 -32 -13 98 rcurveline
            -20 -3 -30 -5 -14 -4 rrcurveto
            endchar
          </CharString>
          <CharString index="13">
            rmoveto
            24 -51 33 -17 vhcurveto
            -9 -5 -30 -42 -4 -22 rrcurveto
            5 -5 30 -13 -22 vvcurveto
            -15 -30 -27 -11 -11 vhcurveto
            1 -3 26 -23 5 -1 rrcurveto
            31 25 54 68 39 vvcurveto
            endchar
          </CharString>
          <CharString index="14">
            -98 callsubr
            140 -10 -87 callgsubr
          </CharString>
          <CharString index="15">
            rmoveto
            -21 -40 54 -21 hhcurveto
            -49 -47 -53 -30 -25 hvcurveto
            11 -8 6 -7 17 -11 rrcurveto
            22 18 27 21 15 hhcurveto
            -1 19 40 -54 22 hhcurveto
            58 39 52 32 21 hvcurveto
            -13 8 -9 8 -12 6 rrcurveto
            -19 -14 -21 -20 19 callgsubr
          </CharString>
          <CharString index="16">
            241 652 614 rmoveto
            0 -59 87 -68 52 vhcurveto
            -34 vlineto
            -233 -22 -231 -163 -268 vhcurveto
            -39 107 0 232 0 vvcurveto
            -67 callsubr
            26 -25 14 -13 40 31 140 162 84 110 18 -202 64 -89 16 -14 rrcurveto
            -11 12 19 -5 17 hhcurveto
            10 10 2 26 callgsubr
            21 10 90 105 77 196 rrcurveto
            71 179 21 115 67 vvcurveto
            return
          </CharString>
          <CharString index="17">
            167 511 262 rmoveto
            1 -45 -34 3 -49 hhcurveto
            -11 -20 -7 -21 -12 -19 rrcurveto
            -59 -36 -127 -145 -67 hhcurveto
            -18 -11 16 41 178 271 468 146 27 1 -26 -16 -93 -80 -93 -39 -40 hvcurveto
            86 -80 rlineto
            69 68 54 107 83 vvcurveto
            25 -13 26 -13 19 vhcurveto
            32 -22 -43 45 -46 hhcurveto
            -241 -261 -414 -224 -102 111 -105 61 58 62 62 63 50 hvcurveto
            -44 -89 -20 -78 -24 -101 rrcurveto
            17 62 13 10 35 hvcurveto
            33 202 108 249 12 14 rrcurveto
            return
          </CharString>
          <CharString index="18">
            -10 callsubr
            17 53 11 43 7 23 rrcurveto
            1 3 0 1 0 -86 callsubr
            -436 -399 -27 callgsubr
            return
          </CharString>
          <CharString index="19">
            -20 115 -92 callgsubr
            return
          </CharString>
          <CharString index="20">
            -7 8 -9 10 -6 6 rrcurveto
            23 callgsubr
            22 45 105 16 50 hvcurveto
            1 4 1 3 2 vvcurveto
            return
          </CharString>
          <CharString index="21">
            vvcurveto
            14 -29 53 -10 2 vhcurveto
            -2 12 callgsubr
            -1 -1 rrcurveto
            -34 -26 -89 -114 -50 hhcurveto
            -6 -3 5 6 50 130 99 46 27 hvcurveto
            0 3 1 2 vvcurveto
            4 -44 26 -14 vhcurveto
            -142 -38 -98 -156 -64 vvcurveto
            -33 38 -29 14 54 83 67 65 47 vhcurveto
            -24 -75 -18 -49 -14 -37 rrcurveto
            -127 -89 -99 -60 -67 vvcurveto
            -31 43 -43 22 49 119 96 130 57 vhcurveto
            13 31 13 31 10 30 55 42 57 47 56 57 rrcurveto
            return
          </CharString>
          <CharString index="22">
            hvcurveto
            -114 -88 -85 -86 -41 hhcurveto
            -13 -4 15 13 63 30 48 39 58 hvcurveto
            -31 -5 -71 -21 -16 -6 rrcurveto
            -19 -44 -6 -33 -33 vvcurveto
            -27 6 -18 8 -12 vhcurveto
            return
          </CharString>
          <CharString index="23">
            -113 198 202 rmoveto
            2 6 -2 9 -8 5 rrcurveto
            0 -62 46 -51 26 vhcurveto
            15 -1 11 -1 3 vhcurveto
            8 -3 -31 14 -3 hhcurveto
            -6 -55 -82 -22 -3 1 -2 2 -1 hvcurveto
            0 21 -17 32 -20 vhcurveto
            -22 -23 -26 -25 -17 -16 23 -24 rcurveline
            22 19 31 29 21 22 7 -4 7 -4 8 -3 -6 -14 -22 -42 -19 -87 -38 callsubr
            38 89 17 50 hvcurveto
            return
          </CharString>
          <CharString index="24">
            rmoveto
            -41 153 -13 -2 -29 -7 -33 -12 rlinecurve
            21 -60 31 -53 19 -34 19 5 11 3 15 7 rrcurveto
            endchar
          </CharString>
          <CharString index="25">
            23 10 45 35 53 vhcurveto
            47 72 32 9 3 6 rrcurveto
            5 -26 32 -18 -8 callsubr
            vhcurveto
            -44 callsubr
            return
          </CharString>
          <CharString index="26">
            rmoveto
            -17 -1 -184 -46 callgsubr
            163 -52 callsubr
          </CharString>
          <CharString index="27">
            -103 19 -36 rmoveto
            120 100 71 85 81 hvcurveto
            -82 callgsubr
            return
          </CharString>
          <CharString index="28">
            29 -61 39 -20 vhcurveto
            -10 -6 -36 -50 -5 -26 rrcurveto
            6 -6 45 -23 -19 vvcurveto
            -13 -34 -49 -14 -12 vhcurveto
            2 -4 20 -16 6 -1 rrcurveto
            37 30 64 81 46 vvcurveto
            return
          </CharString>
          <CharString index="29">
            -86 -12 -54 -38 callsubr
            45 105 16 50 hvcurveto
            1 4 1 3 2 vvcurveto
            19 -60 39 -17 return
          </CharString>
          <CharString index="30">
            -107 -32 135 rmoveto
            23 -24 24 21 36 33 23 26 rlinecurve
            3 -24 3 -26 -27 vvcurveto
            -38 -13 -34 callsubr
            89 61 64 28 callsubr
            0 -69 -66 -67 -39 vhcurveto
            17 21 -27 callsubr
            -19 -41 -29 -5 hvcurveto
            -20 -57 -51 -43 -30 -29 rrcurveto
            return
          </CharString>
          <CharString index="31">
            57 50 17 -35 callsubr
            -37 -39 -31 -16 -39 -2 rrcurveto
            17 27 11 28 28 vvcurveto
            return
          </CharString>
          <CharString index="32">
            -9 17 -67 76 -16 17 -42 callsubr
            -59 12 -20 7 -13 vhcurveto
            return
          </CharString>
          <CharString index="33">
            rmoveto
            -62 callsubr
            -136 -161 -111 -33 -35 hvcurveto
            return
          </CharString>
          <CharString index="34">
            rmoveto
            -41 callgsubr
            130 hmoveto
            -41 callgsubr
            endchar
          </CharString>
          <CharString index="35">
            -8 19 -43 48 -22 15 rrcurveto
            4 -6 -8 2 -11 hhcurveto
            -120 -214 -115 -207 -94 37 return
          </CharString>
          <CharString index="36">
            200 664 848 rmoveto
            -28 31 2 -8 -33 32 -93 -159 rcurveline
            11 -18 -19 7 -18 -52 callgsubr
            15 -3 20 -2 20 -1 -72 -121 -73 -117 -71 -112 rrcurveto
            -5 7 -3 8 9 vvcurveto
            46 69 169 93 108 vhcurveto
            -75 callsubr
            4 -9 13 -20 20 -21 -36 -56 -35 -53 -35 -52 18 -18 9 -9 24 -23 22 31 39 60 48 74 rrcurveto
            -6 11 12 -4 12 14 callsubr
            -5 9 -13 16 -17 17 45 73 34 54 15 24 rrcurveto
            -506 -822 rmoveto
            122 194 152 251 108 176 rrcurveto
            -2 vlineto
            -270 -231 -279 -151 -70 vhcurveto
            166 532 rmoveto
            12 64 58 83 97 3 -53 -90 -53 -90 -53 -89 -10 31 -7 39 9 49 rrcurveto
            return
          </CharString>
          <CharString index="37">
            6 4 2 1 1 hvcurveto
            12 14 28 36 -13 hhcurveto
            -117 -4 39 93 37 79 8 13 rlinecurve
            28 callgsubr
            0 vvcurveto
            2 -2 0 -3 -14 -58 -22 -14 -29 vhcurveto
            -39 -18 -4 -17 -7 -15 -13 -26 -17 -39 -18 -44 -64 -3 rcurveline
            -10 -4 -13 -27 -7 vvcurveto
            -1 1 0 0 vhcurveto
            69 hlineto
            return
          </CharString>
          <CharString index="38">
            701 657 rmoveto
            -21 18 -30 22 -13 9 25 callgsubr
            -3 -2 -3 rrcurveto
            -112 -77 -76 -19 -68 hhcurveto
            39 -6 -34 41 -17 hhcurveto
            -23 -20 -49 -33 -7 1 -14 3 -12 hvcurveto
            -78 -44 -75 -71 -35 hhcurveto
            -8 0 14 12 26 23 65 40 61 hvcurveto
            54 82 58 11 4 7 rrcurveto
            5 -30 37 -21 -3 -7 12 callgsubr
            vhcurveto
            -139 -38 -61 -119 -114 vvcurveto
            -34 56 -62 45 77 109 77 101 45 vhcurveto
            38 3 49 9 41 20 -147 -218 -250 -362 -17 callgsubr
            382 529 109 155 rrcurveto
            66 -494 -51 callgsubr
            return
          </CharString>
          <CharString index="39">
            1 3 1 6 2 vvcurveto
            -50 callgsubr
            return
          </CharString>
          <CharString index="40">
            191 29 105 17 65 vhcurveto
            -14 17 -88 84 -19 18 -5 -31 -19 -86 -8 -272 -9 8 -10 10 -11 9 -17 callsubr
            return
          </CharString>
          <CharString index="41">
            219 63 248 146 119 hhcurveto
            11 3 -3 -7 2 hvcurveto
            8 -42 -112 -146 -56 -44 24 -25 36 -32 18 -17 rrcurveto
            74 47 89 154 67 vvcurveto
            6 -8 21 -1 2 vhcurveto
            return
          </CharString>
          <CharString index="42">
            -21 callsubr
            -12 hhcurveto
            -17 7 callgsubr
            rrcurveto
            154 149 121 183 69 4 callgsubr
            rrcurveto
            -121 -8 -246 -525 -171 -48 callsubr
            -43 420 rmoveto
            121 57 52 89 15 hhcurveto
            3 1 -4 -7 -61 -85 -125 -87 -112 hvcurveto
            14 33 14 33 16 33 rrcurveto
            return
          </CharString>
          <CharString index="43">
            rmoveto
            -70 callgsubr
            return
          </CharString>
          <CharString index="44">
            236 rmoveto
            -28 25 -37 19 -27 13 rrcurveto
            -51 -114 -32 -147 -16 callgsubr
            return
          </CharString>
          <CharString index="45">
            -21 -9 13 27 199 274 472 155 8 13 -14 -25 return
          </CharString>
          <CharString index="46">
            10 callsubr
            138 144 144 182 91 vvcurveto
            19 -5 -40 44 -28 hhcurveto
            -98 -17 -136 -214 -70 -202 -13 8 -16 8 -9 1 rrcurveto
            -145 -45 -93 -144 -80 vvcurveto
            -24 33 -29 13 4 4 1 2 5 vhcurveto
            65 25 49 44 58 52 rrcurveto
            -2 -16 -1 -17 -14 vvcurveto
            -27 50 -49 24 66 97 96 50 51 9 callgsubr
            -11 -43 callgsubr
            -23 -23 -84 -79 -38 hhcurveto
            -5 -3 26 callgsubr
            245 598 rmoveto
            3 0 -8 -4 -58 -84 -128 -98 -120 hvcurveto
            164 61 86 154 32 hhcurveto
            -463 -581 -12 callgsubr
            return
          </CharString>
          <CharString index="47">
            -29 vvcurveto
            -25 39 -33 25 6 8 2 3 5 vhcurveto
            return
          </CharString>
          <CharString index="48">
            rmoveto
            37 -48 37 -27 -64 -45 -59 -56 -33 43 -33 28 53 60 49 58 vhcurveto
            -56 41 rmoveto
            7 4 -6 -11 -49 -36 -43 -30 -9 -1 5 8 46 37 50 28 hvcurveto
            endchar
          </CharString>
          <CharString index="49">
            -94 232 355 rmoveto
            -23 -31 -23 -32 -24 -32 rrcurveto
            10 -5 -22 25 -16 15 callgsubr
            -16 14 -22 18 -18 vhcurveto
            -26 -34 -25 -32 -25 -31 34 -26 rcurveline
            22 28 27 34 28 38 rrcurveto
            -3 7 7 -2 7 hhcurveto
            47 60 33 47 44 hvcurveto
            -76 callsubr
            -3 7 -20 27 -15 19 73 98 rcurveline
            -207 -158 rmoveto
            39 60 43 16 15 7 -47 -62 -47 -64 -46 -61 3 26 12 36 28 42 rrcurveto
            53 -56 rmoveto
            -6 0 -11 5 -12 vhcurveto
            -29 -23 -25 -22 -24 hhcurveto
            -1 hlineto
            22 28 22 30 24 31 rrcurveto
            return
          </CharString>
          <CharString index="50">
            -21 -59 callgsubr
            return
          </CharString>
          <CharString index="51">
            242 326 670 rmoveto
            -24 29 -45 -8 callgsubr
            27 -17 28 -23 54 101 48 95 45 98 49 -89 36 -95 12 -76 21 -8 21 -21 24 -20 -23 callsubr
            43 88 44 94 45 96 -10 12 -56 55 -38 38 -50 -141 -52 -137 -54 -133 -20 -3 -115 -17 -97 -15 59 127 55 132 59 153 rrcurveto
            -60 -645 rmoveto
            -18 43 -30 68 -34 55 62 7 56 6 48 6 -27 -63 -29 -62 -28 -60 rrcurveto
            return
          </CharString>
          <CharString index="52">
            vvcurveto
            -28 35 -29 13 2 8 callsubr
            3 vhcurveto
            55 18 return
          </CharString>
          <CharString index="53">
            rmoveto
            -147 -218 -345 -476 -17 callgsubr
            370 482 109 155 -21 18 -30 22 -13 9 rrcurveto
            return
          </CharString>
          <CharString index="54">
            -3 -19 -1 -34 -17 vvcurveto
            -68 7 81 -114 64 hhcurveto
            return
          </CharString>
          <CharString index="55">
            0 1 25 hvcurveto
            9 14 14 18 14 13 callgsubr
          </CharString>
          <CharString index="56">
            rmoveto
            220 228 96 28 6 3 -1 -8 -94 -109 return
          </CharString>
          <CharString index="57">
            -2 -1 1 9 callsubr
            -49 -126 -40 return
          </CharString>
          <CharString index="58">
            -68 8 -35 49 65 vvcurveto
            75 94 193 28 47 vhcurveto
            -6 4 return
          </CharString>
          <CharString index="59">
            vvcurveto
            -8 3 -3 4 -4 vhcurveto
            -14 15 42 -26 12 hhcurveto
            8 3 20 callsubr
            46 150 116 111 15 5 -26 -60 -40 -99 -2 -56 rrcurveto
            -22 49 -27 24 46 114 97 44 43 vhcurveto
            -76 callgsubr
            -98 -83 -29 hhcurveto
            return
          </CharString>
          <CharString index="60">
            -5 19 7 29 20 3 -11 -2 -32 -69 -13 -34 -4 vhcurveto
            5 -14 7 -34 9 -10 rrcurveto
            110 14 27 57 42 vvcurveto
            endchar
          </CharString>
          <CharString index="61">
            21 -18 -39 86 -84 hhcurveto
            -240 -236 -269 -149 -33 34 -38 35 -30 hvcurveto
            -14 16 35 0 23 hhcurveto
            73 41 return
          </CharString>
          <CharString index="62">
            -28 57 -60 35 83 92 38 117 119 vhcurveto
            return
          </CharString>
          <CharString index="63">
            -29 callsubr
            -30 49 -54 39 return
          </CharString>
          <CharString index="64">
            162 357 670 rmoveto
            -24 29 -47 -8 callgsubr
            29 -17 28 -23 62 116 54 108 52 113 60 -181 54 -132 41 -85 33 14 81 41 13 5 -64 77 -67 106 -85 148 rrcurveto
            229 140 123 116 126 135 -29 25 -50 44 -32 23 -82 -146 -185 -181 -155 -124 56 122 53 127 57 147 rrcurveto
            return
          </CharString>
          <CharString index="65">
            rrcurveto
            -122 -154 -30 -123 -90 vvcurveto
            return
          </CharString>
          <CharString index="66">
            rmoveto
            -8 20 -10 23 -18 26 rrcurveto
            -11 -9 -23 -31 -28 -36 -23 60 -57 hhcurveto
            -29 -30 -25 -31 -27 hvcurveto
            3 -10 12 -43 10 -17 rrcurveto
            14 14 26 40 30 27 32 -63 50 hhcurveto
            33 38 31 17 23 hvcurveto
            return
          </CharString>
          <CharString index="67">
            -55 callgsubr
            -456 -410 7 callsubr
            -70 -22 -84 -129 -30 hhcurveto
            return
          </CharString>
          <CharString index="68">
            -8 -20 -12 -44 -6 -30 14 7 171 99 2 6 13 29 6 31 5 22 -22 23 -71 68 -28 22 -14 -16 -21 -30 -13 -25 rrcurveto
            0 63 -36 49 -43 vhcurveto
            -67 -31 -61 -32 0 vvcurveto
            return
          </CharString>
          <CharString index="69">
            -3 callgsubr
            -22 callgsubr
            vhcurveto
            -7 8 -9 10 -6 6 rrcurveto
            23 callgsubr
            22 return
          </CharString>
          <CharString index="70">
            24 -23 hvcurveto
            -129 -62 -103 -105 -137 vvcurveto
            return
          </CharString>
          <CharString index="71">
            147 744 620 rmoveto
            -19 35 -69 83 -14 16 rrcurveto
            -311 -245 -126 -11 -9 hvcurveto
            -16 -20 -21 -36 -13 return
          </CharString>
          <CharString index="72">
            57 -22 callsubr
            12 -6 6 return
          </CharString>
          <CharString index="73">
            -25 callgsubr
            -20 6 59 -42 38 hhcurveto
            66 102 return
          </CharString>
          <CharString index="74">
            vvcurveto
            -19 42 -37 21 40 32 12 10 18 vhcurveto
            return
          </CharString>
          <CharString index="75">
            -29 61 -39 20 vhcurveto
            10 6 36 50 5 26 rrcurveto
            -6 6 -45 23 19 vvcurveto
            13 34 49 14 12 vhcurveto
            -2 4 -20 16 -6 1 rrcurveto
            -37 -30 -64 -81 -46 vvcurveto
            return
          </CharString>
          <CharString index="76">
            hhcurveto
            -2 0 1 1 29 return
          </CharString>
          <CharString index="77">
            75 12 hhcurveto
            3 0 -2 -3 -23 -40 -88 -91 -127 hvcurveto
            0 return
          </CharString>
          <CharString index="78">
            -121 -33 -53 -104 -99 vvcurveto
            return
          </CharString>
          <CharString index="79">
            -6 6 rrcurveto
            return
          </CharString>
          <CharString index="80">
            6 30 21 vvcurveto
            69 -22 30 16 60 vhcurveto
            6 -56 49 -15 9 vhcurveto
            -10 return
          </CharString>
          <CharString index="81">
            14 -6 -75 36 -23 hhcurveto
            -18 -54 -191 -13 -4 hvcurveto
            -9 47 -30 20 28 callgsubr
            1 vhcurveto
            11 11 84 147 14 34 rrcurveto
            return
          </CharString>
          <CharString index="82">
            80 -143 14 -141 -107 vvcurveto
            -94 -13 -61 -3 -16 vhcurveto
            12 -13 44 -53 19 -20 return
          </CharString>
          <CharString index="83">
            hhcurveto
            -5 -13 -17 -37 -7 -14 rrcurveto
            return
          </CharString>
          <CharString index="84">
            48 76 61 116 67 138 rrcurveto
            60 8 33 6 0 vvcurveto
            22 3 54 98 5 16 3 12 -15 -19 -116 -30 return
          </CharString>
          <CharString index="85">
            55 hvcurveto
            -6 7 -11 return
          </CharString>
          <CharString index="86">
            -1 250 41 rmoveto
            -2 -1 1 2 20 45 116 17 52 hvcurveto
            1 3 2 7 -1 3 rrcurveto
            15 -7 -55 34 return
          </CharString>
          <CharString index="87">
            -6 50 -30 23 -1 vhcurveto
            12 36 82 8 2 hvcurveto
            return
          </CharString>
          <CharString index="88">
            rmoveto
            -6 5 -44 38 -18 14 -40 -37 -69 -33 -9 -5 rrcurveto
            -2 20 -24 5 -3 vhcurveto
            6 4 27 13 25 15 -39 -93 -47 -117 -75 -123 8 -5 40 -24 7 -5 27 45 162 290 20 47 rrcurveto
            endchar
          </CharString>
          <CharString index="89">
            -126 -86 -93 -83 -11 callgsubr
            return
          </CharString>
          <CharString index="90">
            -88 -213 -102 -155 -94 -83 14 -18 return
          </CharString>
          <CharString index="91">
            hhcurveto
            -9 callsubr
            rrcurveto
            return
          </CharString>
          <CharString index="92">
            rmoveto
            7 4 -5 -6 -40 return
          </CharString>
          <CharString index="93">
            rmoveto
            -21 -31 -26 -52 -16 -38 17 9 249 94 4 7 18 30 16 45 6 28 -12 7 -136 89 -27 15 -17 -20 -26 -38 -16 -31 rrcurveto
            0 56 -27 97 -46 vhcurveto
            -107 -30 -49 -9 -10 -2 rrcurveto
            endchar
          </CharString>
          <CharString index="94">
            29 -44 51 hhcurveto
            -61 callgsubr
            -90 -77 -31 hhcurveto
            return
          </CharString>
          <CharString index="95">
            rmoveto
            18 -3 -22 20 -14 hhcurveto
            -16 -7 -2 -3 -12 hvcurveto
            return
          </CharString>
          <CharString index="96">
            -23 45 -30 20 return
          </CharString>
          <CharString index="97">
            -42 360 146 rmoveto
            -42 -42 -42 -36 -42 -33 return
          </CharString>
          <CharString index="98">
            7 15 13 34 10 30 return
          </CharString>
          <CharString index="99">
            -3 -6 12 callgsubr
            return
          </CharString>
          <CharString index="100">
            18 callsubr
            -69 callgsubr
            return
          </CharString>
          <CharString index="101">
            -79 callsubr
            endchar
          </CharString>
          <CharString index="102">
            78 425 635 rmoveto
            -14 14 -55 44 -28 21 -22 -61 -26 -73 -27 -78 rrcurveto
            -1 -40 -45 -1 -50 hhcurveto
            -13 -8 -25 -23 -15 -20 6 -1 75 -6 84 -5 return
          </CharString>
          <CharString index="103">
            627 rmoveto
            41 -32 -49 66 -53 hhcurveto
            -54 -62 -27 -44 return
          </CharString>
          <CharString index="104">
            -27 rmoveto
            -61 callgsubr
            return
          </CharString>
          <CharString index="105">
            vvcurveto
            -19 49 -88 47 32 35 32 51 34 vhcurveto
            9 return
          </CharString>
          <CharString index="106">
            vvcurveto
            8 -1 3 -3 3 vhcurveto
            -15 18 -31 25 -23 5 -173 -44 return
          </CharString>
          <CharString index="107">
            8 12 14 34 5 23 return
          </CharString>
          <CharString index="108">
            0 callsubr
            rrcurveto
            return
          </CharString>
          <CharString index="109">
            -75 -261 -120 hvcurveto
            return
          </CharString>
          <CharString index="110">
            3 17 3 return
          </CharString>
          <CharString index="111">
            16 callgsubr
            -46 -6 -120 -6 vhcurveto
            24 56 20 46 11 27 rrcurveto
            endchar
          </CharString>
          <CharString index="112">
            -24 29 -47 37 -38 36 return
          </CharString>
          <CharString index="113">
            -108 hlineto
            -20 5 -370 -21 vvcurveto
            87 hlineto
            -1 23 14 276 3 112 rrcurveto
            return
          </CharString>
          <CharString index="114">
            3 callgsubr
            66 58 63 83 63 hvcurveto
            return
          </CharString>
          <CharString index="115">
            2 0 1 return
          </CharString>
          <CharString index="116">
            -3 -1 hvcurveto
            return
          </CharString>
          <CharString index="117">
            269 54 rmoveto
            49 12 62 20 66 vhcurveto
            return
          </CharString>
          <CharString index="118">
            -3 -2 3 4 return
          </CharString>
          <CharString index="119">
            rrcurveto
            -157 return
          </CharString>
          <CharString index="120">
            rlinecurve
            28 52 26 52 21 47 -19 20 -46 35 -17 15 -27 -89 -25 return
          </CharString>
          <CharString index="121">
            hhcurveto
            177 320 314 323 77 -14 8 -9 16 hvcurveto
            return
          </CharString>
          <CharString index="122">
            -186 -73 vhcurveto
            23 -27 31 -40 14 -21 rrcurveto
            132 51 return
          </CharString>
          <CharString index="123">
            hhcurveto
            -21 -9 return
          </CharString>
          <CharString index="124">
            -40 -20 -40 -24 -45 5 -5 37 -18 11 -6 26 45 return
          </CharString>
          <CharString index="125">
            401 rmoveto
            return
          </CharString>
          <CharString index="126">
            -59 callgsubr
            -15 callgsubr
            hvcurveto
            return
          </CharString>
          <CharString index="127">
            3 7 2 hvcurveto
            return
          </CharString>
          <CharString index="128">
            hhcurveto
            4 1 -2 -5 return
          </CharString>
          <CharString index="129">
            128 42 rcurveline
            30 99 28 87 26 76 return
          </CharString>
          <CharString index="130">
            -7 -11 -14 return
          </CharString>
          <CharString index="131">
            0 -6 1 return
          </CharString>
          <CharString index="132">
            7 22 8 return
          </CharString>
          <CharString index="133">
            vvcurveto
            3 -1 2 -4 2 vhcurveto
            0 return
          </CharString>
          <CharString index="134">
            -3 -29 -4 -33 -3 7 -50 rcurveline
            return
          </CharString>
          <CharString index="135">
            hvcurveto
            24 callgsubr
            return
          </CharString>
          <CharString index="136">
            -4 -15 rrcurveto
            return
          </CharString>
        <CharString name=".notdef">
          -197 endchar
        </CharString>
        <CharString name="A">
          -105 callsubr
          endchar
        </CharString>
        <CharString name="AE">
          -71 callgsubr
          endchar
        </CharString>
        <CharString name="AEacute">
          -71 callgsubr
          463 691 -101 callsubr
        </CharString>
        <CharString name="Aacute">
          -105 callsubr
          535 924 -101 callsubr
        </CharString>
        <CharString name="Abreve">
          -105 callsubr
          537 924 -93 callgsubr
        </CharString>
        <CharString name="Acircumflex">
          -105 callsubr
          516 813 -105 callgsubr
        </CharString>
        <CharString name="Adieresis">
          -105 callsubr
          413 901 -93 callsubr
        </CharString>
        <CharString name="Agrave">
          -105 callsubr
          458 819 -83 callsubr
        </CharString>
        <CharString name="Amacron">
          -105 callsubr
          547 914 -81 callsubr
        </CharString>
        <CharString name="Aogonek">
          179 536 -247 -53 callgsubr
          24 29 36 67 51 hvcurveto
          2 2 8 5 -6 hhcurveto
          -49 callsubr
          -15 16 -17 17 rrcurveto
          57 70 55 93 61 vvcurveto
          -78 callgsubr
          13 -75 37 -45 47 -21 rrcurveto
          -45 -29 -33 -46 -48 -33 callsubr
          -414 249 -74 callsubr
          57 -58 rlineto
          -201 -94 -152 -131 -37 hhcurveto
          endchar
        </CharString>
        <CharString name="Aring">
          -105 callsubr
          507 901 -59 callsubr
        </CharString>
        <CharString name="Atilde">
          -105 callsubr
          486 888 -92 callsubr
        </CharString>
        <CharString name="B">
          208 730 629 rmoveto
          33 -65 78 -31 -82 -93 -42 -65 -91 vhcurveto
          1 5 0 4 4 vvcurveto
          11 -1 8 -2 6 vhcurveto
          0 -16 46 -85 45 vhcurveto
          -1 -73 -18 -92 -26 -93 rrcurveto
          -158 -162 -122 -209 -137 vvcurveto
          -12 38 -65 29 -2 vhcurveto
          46 -3 50 48 46 73 6 -7 41 -48 43 -35 rrcurveto
          145 16 138 123 86 vvcurveto
          8 -36 76 -32 22 vhcurveto
          -21 11 -38 7 -47 9 38 32 66 30 77 48 rrcurveto
          92 58 109 95 63 vvcurveto
          -462 -352 rmoveto
          10 -22 14 -22 9 -1 rrcurveto
          0 104 -8 51 -29 vhcurveto
          -50 -100 -107 -46 -149 -13 43 67 40 86 35 88 rrcurveto
          76 232 rmoveto
          104 118 121 72 73 hhcurveto
          11 7 -13 -7 -5 hvcurveto
          -84 -126 -165 -65 -116 -96 15 47 14 44 11 40 rrcurveto
          -335 -499 rmoveto
          -4 -4 4 9 2 hvcurveto
          18 91 61 104 77 97 rrcurveto
          -168 -62 -70 -137 -18 hhcurveto
          endchar
        </CharString>
        <CharString name="C">
          -83 callgsubr
          endchar
        </CharString>
        <CharString name="Cacute">
          -83 callgsubr
          255 490 -101 callsubr
        </CharString>
        <CharString name="Ccaron">
          -83 callgsubr
          63 512 -95 callsubr
        </CharString>
        <CharString name="Ccedilla">
          125 222 -157 -12 callsubr
          18 42 104 4 127 147 47 53 rlinecurve
          -67 callgsubr
          88 -85 rlineto
          -48 callgsubr
          25 -46 51 -54 44 -19 -10 -24 -15 -30 -9 -22 rrcurveto
          -47 callsubr
        </CharString>
        <CharString name="Ccircumflex">
          -83 callgsubr
          236 379 -105 callgsubr
        </CharString>
        <CharString name="Cdotaccent">
          -83 callgsubr
          198 457 -87 callgsubr
        </CharString>
        <CharString name="D">
          -56 callgsubr
          endchar
        </CharString>
        <CharString name="Dcaron">
          -56 callgsubr
          427 931 -95 callsubr
        </CharString>
        <CharString name="Dcroat">
          -68 callgsubr
        </CharString>
        <CharString name="E">
          -104 callsubr
          endchar
        </CharString>
        <CharString name="Eacute">
          -104 callsubr
          174 451 -101 callsubr
        </CharString>
        <CharString name="Ebreve">
          -104 callsubr
          176 451 -93 callgsubr
        </CharString>
        <CharString name="Ecaron">
          -104 callsubr
          -18 473 -95 callsubr
        </CharString>
        <CharString name="Ecircumflex">
          -104 callsubr
          155 340 -105 callgsubr
        </CharString>
        <CharString name="Edieresis">
          -104 callsubr
          52 428 -93 callsubr
        </CharString>
        <CharString name="Edotaccent">
          -104 callsubr
          117 418 -87 callgsubr
        </CharString>
        <CharString name="Egrave">
          -104 callsubr
          97 346 -83 callsubr
        </CharString>
        <CharString name="Emacron">
          -104 callsubr
          186 441 -81 callsubr
        </CharString>
        <CharString name="Eng">
          280 368 -68 rmoveto
          119 -66 -2 275 1 hhcurveto
          -67 callsubr
          27 -24 13 -14 40 31 141 162 83 111 20 -202 68 -86 10 -18 rrcurveto
          8 -14 24 -19 18 -7 rrcurveto
          -78 -49 -55 -47 -56 hhcurveto
          -22 -7 20 13 37 10 43 16 42 hvcurveto
          -98 -30 rlineto
          -5 -28 -1 -26 -17 vvcurveto
          -57 83 -67 57 293 135 613 284 5 vhcurveto
          17 vlineto
          0 -59 87 -68 52 vhcurveto
          3 -31 1 -32 -33 vvcurveto
          -265 -67 -287 -94 -173 vhcurveto
          endchar
        </CharString>
        <CharString name="Eogonek">
          128 236 -226 -53 callgsubr
          32 56 63 29 13 hvcurveto
          115 52 99 97 27 38 -97 callsubr
          84 -74 rlineto
          -73 callgsubr
          -53 23 -31 -37 callsubr
          3 -74 89 -100 93 -1 rrcurveto
          -29 -28 -33 -40 -41 -33 callsubr
          endchar
        </CharString>
        <CharString name="Eth">
          -68 callgsubr
        </CharString>
        <CharString name="Euro">
          113 335 287 rmoveto
          -7 -72 0 -77 hhcurveto
          8 16 9 17 9 16 155 2 rcurveline
          8 12 24 34 5 23 rrcurveto
          -152 hlineto
          132 81 98 110 59 hhcurveto
          14 14 -7 -37 -50 -49 -62 -41 -46 hvcurveto
          98 -61 rlineto
          45 60 31 69 51 vvcurveto
          49 -73 84 -50 -142 -137 -141 -153 -87 vhcurveto
          -38 -1 -27 -2 21 callgsubr
          28 -1 38 hhcurveto
          -9 -17 -7 -18 -7 -17 -29 -1 -20 -1 21 callgsubr
          27 -1 36 hhcurveto
          -11 -38 -5 -35 -29 vvcurveto
          -17 0 -30 19 -33 vhcurveto
          -54 29 65 -63 46 hhcurveto
          77 92 89 61 56 hvcurveto
          -84 79 rlineto
          -59 -48 -83 -91 -41 hhcurveto
          -21 -11 8 37 48 16 61 26 66 hvcurveto
          150 2 8 12 24 34 5 23 rlinecurve
          endchar
        </CharString>
        <CharString name="F">
          316 712 311 rmoveto
          -3 -49 -26 -27 -117 hvcurveto
          129 199 126 178 12 vvcurveto
          30 -2 -66 84 -34 hhcurveto
          -155 -511 -212 -160 -20 74 -93 18 -2 hvcurveto
          2 2 -1 4 hhcurveto
          71 58 10 8 15 hvcurveto
          24 -4 54 -1 30 vhcurveto
          -19 -37 -55 -27 -42 hhcurveto
          -10 0 5 2 12 173 202 416 114 hvcurveto
          8 2 1 -5 -4 vvcurveto
          -3 -1 -4 -1 -1 vhcurveto
          -115 -137 -111 -142 -106 -165 -41 -5 -46 -6 -50 -4 rrcurveto
          -11 -2 -30 -48 -14 vvcurveto
          -3 1 -1 2 5 55 3 6 68 vhcurveto
          -65 -106 -63 -115 -60 -131 21 7 95 14 29 12 39 90 71 120 76 121 65 7 57 7 26 7 rrcurveto
          51 46 29 61 13 vvcurveto
          8 callsubr
          -1 vhcurveto
          endchar
        </CharString>
        <CharString name="G">
          -90 callsubr
          endchar
        </CharString>
        <CharString name="Gbreve">
          -90 callsubr
          121 664 -93 callgsubr
        </CharString>
        <CharString name="Gcircumflex">
          -90 callsubr
          100 553 -105 callgsubr
        </CharString>
        <CharString name="Gcommaaccent">
          -90 callsubr
          -318 -440 -94 callsubr
        </CharString>
        <CharString name="Gdotaccent">
          -90 callsubr
          62 631 -87 callgsubr
        </CharString>
        <CharString name="H">
          -56 callsubr
          endchar
        </CharString>
        <CharString name="Hbar">
          272 675 599 rmoveto
          -10 12 -56 55 -38 38 -26 -73 -26 -72 -27 -72 rrcurveto
          -68 -73 0 -1 -68 hvcurveto
          24 59 24 60 25 65 -24 29 -45 37 -38 36 -28 -96 -32 -97 -33 -94 -57 -1 -38 -1 -4 -1 5 callgsubr
          -1 3 39 -1 57 hhcurveto
          -68 -184 -71 -164 -54 -104 18 -13 27 -17 28 -23 54 101 48 95 46 97 48 -88 36 -96 12 -75 rrcurveto
          0 2 -2 4 vhcurveto
          16 -9 23 -20 21 -18 -23 callsubr
          47 97 rcurveline
          55 39 1 5 8 callgsubr
          -93 hlineto
          -158 -71 rmoveto
          -50 -124 -20 -3 -114 -17 -97 -15 rlinecurve
          24 52 22 53 24 54 rrcurveto
          69 72 0 70 hhcurveto
          -170 -392 rmoveto
          -17 43 -30 68 -35 55 63 7 56 6 48 6 -27 -63 -28 -62 -30 -60 rrcurveto
          endchar
        </CharString>
        <CharString name="Hcircumflex">
          -56 callsubr
          291 756 -105 callgsubr
        </CharString>
        <CharString name="I">
          -107 callsubr
          endchar
        </CharString>
        <CharString name="IJ">
          657 -107 callgsubr
          853 255 -81 callgsubr
          endchar
        </CharString>
        <CharString name="Iacute">
          -107 callsubr
          397 537 -101 callsubr
        </CharString>
        <CharString name="Ibreve">
          -107 callsubr
          399 537 -93 callgsubr
        </CharString>
        <CharString name="Icircumflex">
          -107 callsubr
          378 426 -105 callgsubr
        </CharString>
        <CharString name="Idieresis">
          -107 callsubr
          275 514 -93 callsubr
        </CharString>
        <CharString name="Idotaccent">
          -107 callsubr
          340 504 -87 callgsubr
        </CharString>
        <CharString name="Igrave">
          -107 callsubr
          320 432 -83 callsubr
        </CharString>
        <CharString name="Imacron">
          -107 callsubr
          409 527 -81 callsubr
        </CharString>
        <CharString name="Iogonek">
          75 88 -247 -53 callgsubr
          32 44 50 25 19 hvcurveto
          72 33 79 70 73 86 -44 callgsubr
          -35 22 -32 -36 callgsubr
          216 121 vvcurveto
          16 -3 12 -3 7 vhcurveto
          -72 callsubr
          -88 49 -70 -85 callsubr
          15 -21 44 -63 30 -2 rrcurveto
          -30 -28 -38 -43 -44 -33 callsubr
          117 636 -51 callsubr
          -198 -117 -162 vhcurveto
          -25 52 -14 51 44 vvcurveto
          endchar
        </CharString>
        <CharString name="Itilde">
          -107 callsubr
          348 501 -92 callsubr
        </CharString>
        <CharString name="J">
          -65 callgsubr
          endchar
        </CharString>
        <CharString name="Jcircumflex">
          -65 callgsubr
          558 892 -105 callgsubr
        </CharString>
        <CharString name="K">
          -43 callsubr
          endchar
        </CharString>
        <CharString name="Kcommaaccent">
          -43 callsubr
          -157 -848 -94 callsubr
        </CharString>
        <CharString name="L">
          -75 callgsubr
          endchar
        </CharString>
        <CharString name="Lacute">
          -75 callgsubr
          543 957 -101 callsubr
        </CharString>
        <CharString name="Lcaron">
          -75 callgsubr
          613 663 rmoveto
          -6 callsubr
        </CharString>
        <CharString name="Lcommaaccent">
          -75 callgsubr
          266 -157 -94 callsubr
        </CharString>
        <CharString name="Ldot">
          -75 callgsubr
          516 292 -62 callgsubr
        </CharString>
        <CharString name="Lslash">
          85 319 342 rmoveto
          -6 -2 -51 -19 -64 -23 60 124 61 136 38 112 5 callsubr
          -46 -179 -68 -185 -69 -158 -46 -16 -42 -14 -25 -8 -2 -13 2 -20 2 -15 rrcurveto
          4 34 10 13 45 hvcurveto
          -39 -85 -39 -75 -33 -58 81 -35 rcurveline
          -54 callgsubr
          27 52 39 72 40 80 78 23 72 23 10 4 3 14 -1 31 -5 23 rrcurveto
          endchar
        </CharString>
        <CharString name="M">
          291 713 689 rmoveto
          -18 3 -45 4 -26 1 -25 -61 -42 -136 -39 -152 -85 -143 -105 -92 -14 4 -17 4 3 140 1 66 2 159 37 187 4 15 -13 15 -95 103 -11 4 -20 -152 -10 -126 -5 -102 rrcurveto
          -8 8 -8 8 -10 8 -17 callsubr
          27 -24 13 -14 38 30 132 151 84 110 3 -91 10 -48 6 -10 13 -21 57 -49 27 15 rrcurveto
          0 85 40 93 125 vhcurveto
          -31 -141 -24 -141 -1 -97 23 12 96 49 24 16 2 357 64 219 78 216 rrcurveto
          endchar
        </CharString>
        <CharString name="N">
          -91 callsubr
          endchar
        </CharString>
        <CharString name="Nacute">
          -91 callsubr
          -87 315 -101 callsubr
        </CharString>
        <CharString name="Ncaron">
          -91 callsubr
          -279 337 -95 callsubr
        </CharString>
        <CharString name="Ncommaaccent">
          -91 callsubr
          -452 -745 -94 callsubr
        </CharString>
        <CharString name="Ntilde">
          -91 callsubr
          -136 279 -92 callsubr
        </CharString>
        <CharString name="O">
          -103 callgsubr
          endchar
        </CharString>
        <CharString name="OE">
          590 957 -7 callsubr
          -95 -116 -75 -98 -46 hvcurveto
          -4 45 -11 8 -7 13 rrcurveto
          -102 callsubr
          81 113 67 104 97 hvcurveto
          -8 -96 callsubr
          -280 -113 rmoveto
          10 28 8 29 6 29 9 -22 14 -16 14 -14 -21 -10 -21 -12 -19 -12 rrcurveto
          endchar
        </CharString>
        <CharString name="Oacute">
          -103 callgsubr
          7 271 -101 callsubr
        </CharString>
        <CharString name="Obreve">
          -103 callgsubr
          9 271 -93 callgsubr
        </CharString>
        <CharString name="Ocircumflex">
          -103 callgsubr
          -12 160 -105 callgsubr
        </CharString>
        <CharString name="Odieresis">
          -103 callgsubr
          -115 248 -93 callsubr
        </CharString>
        <CharString name="Ograve">
          -103 callgsubr
          -70 166 -83 callsubr
        </CharString>
        <CharString name="Ohungarumlaut">
          -103 callgsubr
          -91 271 -73 callsubr
        </CharString>
        <CharString name="Omacron">
          -103 callgsubr
          19 261 -81 callsubr
        </CharString>
        <CharString name="Oslash">
          -71 callsubr
          endchar
        </CharString>
        <CharString name="Oslashacute">
          -71 callsubr
          213 368 -101 callsubr
        </CharString>
        <CharString name="Otilde">
          -103 callgsubr
          -42 235 -92 callsubr
        </CharString>
        <CharString name="P">
          197 709 617 rmoveto
          28 -2 -63 78 -37 -79 callgsubr
          21 5 8 -17 -13 vvcurveto
          -98 -114 -135 15 callsubr
          160 164 141 vvcurveto
          -707 -614 -33 callgsubr
          endchar
        </CharString>
        <CharString name="Q">
          200 457 762 rmoveto
          -103 -151 -163 -178 -12 hvcurveto
          -20 24 -24 27 -9 10 -42 callsubr
          -60 12 -19 7 -13 vhcurveto
          -20 10 61 -86 55 hhcurveto
          54 67 30 50 68 hvcurveto
          21 -33 25 -32 27 -36 rrcurveto
          59 55 4 2 38 hvcurveto
          -49 56 -49 53 -42 59 rrcurveto
          121 122 102 180 182 vvcurveto
          76 -14 9 -9 16 vhcurveto
          25 -15 -71 82 -62 hhcurveto
          -163 -341 rmoveto
          128 82 159 119 22 23 -16 -47 -172 -91 -174 -105 -122 vhcurveto
          -31 68 -19 79 97 vvcurveto
          -32 -327 rmoveto
          -53 -62 -60 -31 -44 hhcurveto
          -10 -18 18 21 41 50 140 75 107 hvcurveto
          7 -90 22 -76 40 -77 rrcurveto
          endchar
        </CharString>
        <CharString name="R">
          -90 callgsubr
          endchar
        </CharString>
        <CharString name="Racute">
          -90 callgsubr
          667 917 -101 callsubr
        </CharString>
        <CharString name="Rcaron">
          -90 callgsubr
          475 939 -95 callsubr
        </CharString>
        <CharString name="Rcommaaccent">
          -90 callgsubr
          292 -144 -94 callsubr
        </CharString>
        <CharString name="S">
          -84 callgsubr
          endchar
        </CharString>
        <CharString name="Sacute">
          -84 callgsubr
          -10 273 -101 callsubr
        </CharString>
        <CharString name="Scaron">
          -84 callgsubr
          -202 295 -95 callsubr
        </CharString>
        <CharString name="Scedilla">
          181 210 -151 -12 callsubr
          20 46 rlineto
          144 43 149 121 111 vvcurveto
          33 -50 85 -34 -63 -72 -13 -1 -91 vhcurveto
          -66 callsubr
          -46 callsubr
          12 2 75 hvcurveto
          -51 -181 -256 -48 -2 callgsubr
          18 20 3 3 20 hvcurveto
          -29 -64 rlineto
          -47 callsubr
        </CharString>
        <CharString name="Scircumflex">
          -84 callgsubr
          -29 162 -105 callgsubr
        </CharString>
        <CharString name="T">
          -72 callgsubr
          endchar
        </CharString>
        <CharString name="Tbar">
          -36 callsubr
          -2 1 0 -1 vvcurveto
          -25 callsubr
          39 79 89 179 66 162 112 2 rcurveline
          8 12 14 14 5 23 rrcurveto
          -119 hlineto
          19 49 15 46 11 40 -19 23 -59 55 -29 23 -5 -18 -26 -98 -37 -122 -45 -1 -33 -1 -5 -2 23 callsubr
          -17 29 callsubr
          -2 4 40 0 49 hhcurveto
          -31 -96 -35 -105 -38 -89 -37 callgsubr
          endchar
        </CharString>
        <CharString name="Tcaron">
          -72 callgsubr
          -345 323 -95 callsubr
        </CharString>
        <CharString name="Tcommaaccent">
          -72 callgsubr
          -541 -808 -94 callsubr
        </CharString>
        <CharString name="Thorn">
          197 629 457 rmoveto
          28 -2 -63 78 -37 hhcurveto
          -48 -49 -11 -20 -48 hvcurveto
          21 69 15 59 6 41 -17 27 -42 47 -52 21 -5 -87 -37 -137 -48 -135 -142 -114 -117 -170 -41 -137 -39 callgsubr
          99 54 120 246 77 215 69 44 68 33 58 13 rrcurveto
          21 5 8 -17 -13 vvcurveto
          -98 -104 -115 15 callsubr
          150 144 141 vvcurveto
          -627 -454 rmoveto
          -3 -2 2 4 75 68 102 95 93 hvcurveto
          -154 -64 -66 -122 -28 hhcurveto
          endchar
        </CharString>
        <CharString name="U">
          -102 callgsubr
          endchar
        </CharString>
        <CharString name="Uacute">
          -102 callgsubr
          326 947 -101 callsubr
        </CharString>
        <CharString name="Ubreve">
          -102 callgsubr
          328 947 -93 callgsubr
        </CharString>
        <CharString name="Ucircumflex">
          -102 callgsubr
          307 836 -105 callgsubr
        </CharString>
        <CharString name="Udieresis">
          -102 callgsubr
          204 924 -93 callsubr
        </CharString>
        <CharString name="Ugrave">
          -102 callgsubr
          249 842 -83 callsubr
        </CharString>
        <CharString name="Uhungarumlaut">
          -102 callgsubr
          228 947 -73 callsubr
        </CharString>
        <CharString name="Umacron">
          -102 callgsubr
          338 937 -81 callsubr
        </CharString>
        <CharString name="Uogonek">
          235 469 -238 -53 callgsubr
          20 25 35 36 18 hvcurveto
          -99 callgsubr
          53 52 63 96 vhcurveto
          -28 -62 -34 -74 -34 -98 67 -49 rcurveline
          -37 -24 -45 -47 -48 -33 callsubr
          endchar
        </CharString>
        <CharString name="Uring">
          -102 callgsubr
          298 924 -59 callsubr
        </CharString>
        <CharString name="Utilde">
          -102 callgsubr
          277 911 -92 callsubr
        </CharString>
        <CharString name="V">
          194 504 754 rmoveto
          1 -6 7 -19 -44 vvcurveto
          -233 -151 -314 -230 -140 vhcurveto
          39 161 51 214 -66 callgsubr
          155 63 310 288 64 345 rrcurveto
          endchar
        </CharString>
        <CharString name="W">
          -97 callgsubr
          endchar
        </CharString>
        <CharString name="Wacute">
          -97 callgsubr
          238 836 -101 callsubr
        </CharString>
        <CharString name="Wcircumflex">
          -97 callgsubr
          219 725 -105 callgsubr
        </CharString>
        <CharString name="Wdieresis">
          -97 callgsubr
          116 813 -93 callsubr
        </CharString>
        <CharString name="Wgrave">
          -97 callgsubr
          161 731 -83 callsubr
        </CharString>
        <CharString name="X">
          108 395 -135 rmoveto
          -42 129 -31 120 -22 121 127 135 101 140 91 145 -15 28 -56 77 -28 31 -42 -127 -81 -155 -117 -153 -9 68 -7 69 -4 73 -7 4 -109 60 -39 19 19 -132 28 -136 36 -135 rrcurveto
          -87 -97 -102 -93 -119 -83 9 -10 25 -32 14 -14 109 76 94 77 83 79 30 -102 35 -101 38 -99 16 3 35 6 27 9 rrcurveto
          endchar
        </CharString>
        <CharString name="Y">
          -86 callgsubr
          endchar
        </CharString>
        <CharString name="Yacute">
          -86 callgsubr
          342 1411 -101 callsubr
        </CharString>
        <CharString name="Ycircumflex">
          -86 callgsubr
          323 1300 -105 callgsubr
        </CharString>
        <CharString name="Ydieresis">
          -86 callgsubr
          220 1388 -93 callsubr
        </CharString>
        <CharString name="Ygrave">
          -86 callgsubr
          265 1306 -83 callsubr
        </CharString>
        <CharString name="Z">
          -77 callgsubr
          endchar
        </CharString>
        <CharString name="Zacute">
          -77 callgsubr
          -130 288 -101 callsubr
        </CharString>
        <CharString name="Zcaron">
          -77 callgsubr
          -322 310 -95 callsubr
        </CharString>
        <CharString name="Zdotaccent">
          -77 callgsubr
          -187 255 -87 callgsubr
        </CharString>
        <CharString name="a">
          -106 callsubr
          endchar
        </CharString>
        <CharString name="aacute">
          -106 callsubr
          94 411 -101 callsubr
        </CharString>
        <CharString name="abreve">
          -106 callsubr
          96 411 -93 callgsubr
        </CharString>
        <CharString name="acircumflex">
          -106 callsubr
          75 300 -105 callgsubr
        </CharString>
        <CharString name="acute">
          264 454 -101 callsubr
        </CharString>
        <CharString name="adieresis">
          -106 callsubr
          -28 388 -93 callsubr
        </CharString>
        <CharString name="ae">
          -58 callgsubr
          endchar
        </CharString>
        <CharString name="aeacute">
          -58 callgsubr
          79 212 -101 callsubr
        </CharString>
        <CharString name="agrave">
          -106 callsubr
          17 306 -83 callsubr
        </CharString>
        <CharString name="amacron">
          -106 callsubr
          106 401 -81 callsubr
        </CharString>
        <CharString name="ampersand">
          169 557 666 rmoveto
          28 -18 -38 48 -34 hhcurveto
          -113 -104 -157 -196 -36 hvcurveto
          -119 -95 -115 -104 -123 vvcurveto
          -28 67 -86 39 40 66 31 42 67 vhcurveto
          17 -34 16 -22 3 -5 31 -2 89 -1 29 4 -12 12 -38 51 -36 66 71 53 55 56 3 25 rrcurveto
          7 vlineto
          32 -13 108 -8 -2 -54 -92 -98 -94 vhcurveto
          -15 41 -10 43 39 10 1 12 12 vvcurveto
          128 110 141 101 100 vvcurveto
          4 -2 4 -2 4 vhcurveto
          -330 -562 rmoveto
          -45 -60 -52 -24 -18 6 callgsubr
          3 77 47 71 65 68 hvcurveto
          -9 vlineto
          -54 10 -49 15 -43 vhcurveto
          250 584 rmoveto
          4 2 -2 -4 -73 -77 -70 -94 -74 hvcurveto
          113 29 56 110 80 hhcurveto
          endchar
        </CharString>
        <CharString name="aogonek">
          -9 283 -167 -53 callgsubr
          30 42 46 26 21 hvcurveto
          48 39 76 62 37 34 -23 25 rcurveline
          -21 -23 -95 -84 -18 -59 callgsubr
          14 2 39 29 61 hvcurveto
          1 vlineto
          14 -19 callgsubr
          0 25 callgsubr
          rrcurveto
          -100 callgsubr
          -21 21 -16 21 -6 vhcurveto
          -29 -28 -31 -39 -40 -33 callsubr
          endchar
        </CharString>
        <CharString name="approxequal">
          301 197 -41 callsubr
          28 150 -41 callsubr
          endchar
        </CharString>
        <CharString name="aring">
          -106 callsubr
          66 388 -59 callsubr
        </CharString>
        <CharString name="asciicircum">
          78 454 511 rmoveto
          -3 14 -69 141 -13 22 -22 5 -76 7 -20 -3 -26 -30 -87 -102 -16 -32 14 -10 40 -25 24 -7 27 40 48 67 22 30 31 -52 23 -60 14 -29 15 1 37 12 37 11 rrcurveto
          endchar
        </CharString>
        <CharString name="asciitilde">
          304 252 -41 callsubr
          endchar
        </CharString>
        <CharString name="asterisk">
          28 506 517 rmoveto
          -3 18 -17 50 -12 27 rrcurveto
          0 -16 -7 -90 -41 vhcurveto
          18 34 30 61 9 22 -13 5 -59 12 -24 3 rrcurveto
          0 -12 -54 -18 -69 vhcurveto
          -63 47 -29 21 -4 2 -20 -30 -18 -23 -19 -42 rrcurveto
          0 34 -15 78 -25 vhcurveto
          -93 -83 -21 -18 0 vvcurveto
          13 -20 42 -35 20 -16 rrcurveto
          0 14 13 74 117 vhcurveto
          16 -86 15 -57 0 vvcurveto
          28 11 33 15 31 15 -15 31 -31 59 -18 41 rrcurveto
          110 11 30 6 0 vvcurveto
          endchar
        </CharString>
        <CharString name="at">
          428 541 217 rmoveto
          14 20 61 29 62 vhcurveto
          14 -19 callgsubr
          0 25 callgsubr
          rrcurveto
          -99 callsubr
          102 71 43 45 rrcurveto
          -101 -52 27 -63 91 hhcurveto
          101 137 121 189 136 -93 123 -157 -251 -245 -257 -262 -102 73 -148 195 111 80 49 32 49 hvcurveto
          -41 77 rlineto
          -52 -58 -69 -40 -67 hhcurveto
          -122 -46 96 86 260 222 190 159 93 77 -76 -101 -197 -99 -71 -45 -12 -9 8 16 hvcurveto
          endchar
        </CharString>
        <CharString name="atilde">
          -106 callsubr
          45 375 -92 callsubr
        </CharString>
        <CharString name="b">
          -63 203 53 rmoveto
          58 50 16 -35 callsubr
          rrcurveto
          -43 -40 -34 -14 -45 hhcurveto
          -2 hlineto
          19 27 12 27 4 25 -14 27 -18 30 -15 12 rrcurveto
          -31 -30 -34 -47 -50 vvcurveto
          -3 0 -4 1 -4 vhcurveto
          -35 -24 -30 -29 -17 hhcurveto
          -8 -2 5 18 23 12 57 20 65 hvcurveto
          164 144 157 148 25 136 rrcurveto
          34 -11 -45 33 -28 hhcurveto
          -39 -9 -114 -43 -129 -211 rrcurveto
          -98 -160 -24 -154 -61 vvcurveto
          -25 53 -67 40 42 56 35 46 43 vhcurveto
          -1 5 4 0 5 hhcurveto
          -26 359 rmoveto
          182 100 76 49 20 hhcurveto
          3 2 -2 -5 -59 -107 -136 -143 -139 hvcurveto
          16 41 16 38 17 13 callgsubr
        </CharString>
        <CharString name="backslash">
          99 195 762 rmoveto
          -30 -11 -27 -13 -36 -17 104 -331 51 -181 96 -310 14 6 18 5 32 18 -64 219 -97 369 -61 246 rrcurveto
          endchar
        </CharString>
        <CharString name="bar">
          -22 269 726 rmoveto
          -118 hlineto
          -20 5 -908 -21 vvcurveto
          87 hlineto
          -1 23 24 814 3 112 rrcurveto
          endchar
        </CharString>
        <CharString name="braceleft">
          -8 484 684 rmoveto
          -53 49 -30 29 -18 12 rrcurveto
          -112 -44 -84 -121 -129 vvcurveto
          -27 3 -27 8 -27 vhcurveto
          -131 -23 -8 -8 0 vvcurveto
          -2 -6 0 -9 -9 vvcurveto
          -18 2 -22 7 -15 vhcurveto
          0 9 -7 46 -21 vhcurveto
          -84 -54 -27 -76 -73 vvcurveto
          -92 43 -88 26 -37 vhcurveto
          21 1 17 1 20 3 rrcurveto
          -16 16 -24 78 75 vvcurveto
          146 101 67 70 41 vhcurveto
          6 -41 11 -82 41 vhcurveto
          54 6 42 4 50 5 rrcurveto
          -5 24 -2 24 23 vvcurveto
          132 76 111 124 28 vhcurveto
          endchar
        </CharString>
        <CharString name="braceright">
          -8 375 587 rmoveto
          76 -31 69 -30 36 vhcurveto
          -42 -12 -39 -17 -47 -20 rrcurveto
          44 -44 21 -53 -52 vvcurveto
          -85 -54 -84 -92 -44 vhcurveto
          0 41 -17 81 -41 vhcurveto
          -94 -3 -10 1 -46 -2 rrcurveto
          -3 0 -2 -2 1 hvcurveto
          18 -39 8 -41 -42 vvcurveto
          -113 -68 -115 -81 -58 vhcurveto
          12 -13 7 -7 22 -22 rrcurveto
          102 64 112 131 136 vvcurveto
          17 -3 22 -5 20 vhcurveto
          60 7 48 13 0 vvcurveto
          7 10 12 45 29 vvcurveto
          0 -19 7 -58 23 vhcurveto
          94 63 32 83 76 vvcurveto
          endchar
        </CharString>
        <CharString name="bracketleft">
          -2 540 768 rmoveto
          -94 -4 -87 -1 -88 -1 -7 -16 -331 -852 -12 -30 -3 -8 164 7 72 4 rrcurveto
          14 59 86 14 -1 hvcurveto
          3 -29 -12 -156 -8 vhcurveto
          324 725 rlineto
          66 32 -1 15 hhcurveto
          25 24 23 30 14 40 rrcurveto
          endchar
        </CharString>
        <CharString name="bracketright">
          -2 -92 -142 rmoveto
          94 4 47 1 88 1 7 16 331 852 12 30 rrcurveto
          -32 -159 1 -4 -72 hvcurveto
          -14 -59 -86 -14 1 hvcurveto
          -3 19 12 159 9 vhcurveto
          -251 -725 rlineto
          -1 -81 -10 1 -18 hhcurveto
          -25 -24 -23 -30 -14 -40 rrcurveto
          endchar
        </CharString>
        <CharString name="breve">
          314 454 -93 callgsubr
        </CharString>
        <CharString name="brokenbar">
          -22 254 726 rmoveto
          6 callsubr
          -510 vmoveto
          6 callsubr
          endchar
        </CharString>
        <CharString name="bullet">
          -122 221 271 rmoveto
          40 -52 41 -30 -71 -50 -65 -63 -36 48 -37 31 59 65 55 65 vhcurveto
          endchar
        </CharString>
        <CharString name="c">
          -80 callsubr
          endchar
        </CharString>
        <CharString name="cacute">
          -80 callsubr
          284 490 -101 callsubr
        </CharString>
        <CharString name="caron">
          118 476 -95 callsubr
        </CharString>
        <CharString name="ccaron">
          -80 callsubr
          92 512 -95 callsubr
        </CharString>
        <CharString name="ccedilla">
          -103 128 -106 -12 callsubr
          18 42 97 17 82 62 69 72 rlinecurve
          -82 callgsubr
          13 hlineto
          -10 -22 -12 -24 -8 -19 rrcurveto
          -47 callsubr
        </CharString>
        <CharString name="ccircumflex">
          -80 callsubr
          265 379 -105 callgsubr
        </CharString>
        <CharString name="cdotaccent">
          -80 callsubr
          227 457 -87 callgsubr
        </CharString>
        <CharString name="cedilla">
          147 -86 -12 callsubr
          30 67 rlineto
          -40 hlineto
          -9 -25 -21 -42 -12 -28 rrcurveto
          -47 callsubr
        </CharString>
        <CharString name="cent">
          -62 335 559 rmoveto
          -17 18 -15 13 -14 7 -3 -11 -28 -71 -35 -91 rrcurveto
          -117 -3 -106 -116 -111 vvcurveto
          -26 callgsubr
          4 hlineto
          -57 -144 12 -5 11 -6 13 -2 rlinecurve
          11 32 25 59 32 70 59 10 54 27 49 36 -20 32 rcurveline
          -32 -23 -45 -21 -43 -9 18 40 19 42 18 42 38 12 45 27 5 20 rrcurveto
          15 -17 25 -19 20 vhcurveto
          28 66 24 59 14 41 rrcurveto
          -239 -378 rmoveto
          63 63 104 44 26 vhcurveto
          -89 -228 rlineto
          -12 6 -6 17 12 vvcurveto
          endchar
        </CharString>
        <CharString name="circumflex">
          291 343 -105 callgsubr
        </CharString>
        <CharString name="colon">
          -122 169 63 -64 callsubr
          59 200 -62 callgsubr
        </CharString>
        <CharString name="comma">
          -172 137 -6 callgsubr
          endchar
        </CharString>
        <CharString name="commaaccent">
          102 -128 -94 callsubr
        </CharString>
        <CharString name="copyright">
          478 488 715 rmoveto
          -195 -228 -139 -289 -228 199 -91 148 235 187 190 214 227 -168 116 -178 hvcurveto
          -312 -438 rmoveto
          199 121 188 183 153 95 -109 -160 -162 -120 -209 -186 -144 -102 86 167 vhcurveto
          406 90 rmoveto
          22 31 16 39 37 vvcurveto
          11 -1 10 -3 10 vhcurveto
          23 -7 -73 47 -37 hhcurveto
          -142 -70 -217 -110 -33 5 -30 20 -25 hvcurveto
          -26 21 61 -23 27 hhcurveto
          74 52 87 57 29 hvcurveto
          -19 8 -74 17 -2 2 rrcurveto
          -32 -13 -28 -82 -29 hhcurveto
          -13 -10 13 56 115 79 169 52 6 6 -10 -16 -33 -20 -47 -20 -20 hvcurveto
          endchar
        </CharString>
        <CharString name="currency">
          143 460 518 rmoveto
          -30 -30 -38 -29 -32 -29 rrcurveto
          13 -23 -18 3 -20 hhcurveto
          -29 -27 -7 -12 -23 hvcurveto
          -71 101 -23 -13 -30 -20 -12 -7 rlinecurve
          76 -104 rlineto
          -36 -38 -25 -46 -52 vvcurveto
          -16 3 -22 8 -14 vhcurveto
          -44 -40 -34 -30 -13 -13 8 -13 23 -37 16 -13 96 89 rcurveline
          -19 25 24 -6 24 hhcurveto
          30 31 8 15 30 hvcurveto
          36 -56 15 -21 13 -18 13 5 35 16 15 15 -68 101 rcurveline
          32 32 25 36 56 vvcurveto
          24 -9 28 -17 22 vhcurveto
          95 84 -16 21 -24 26 -11 10 rlinecurve
          -158 -128 rmoveto
          41 22 -41 -35 -83 -60 -60 -66 -43 -22 34 40 70 56 75 72 hvcurveto
          endchar
        </CharString>
        <CharString name="d">
          23 -61 callsubr
          endchar
        </CharString>
        <CharString name="dagger">
          -5 callsubr
          -63 -185 -66 -190 -32 -73 16 -5 28 -6 19 -5 24 53 102 228 79 178 55 -2 49 -1 23 2 4 callsubr
        </CharString>
        <CharString name="daggerdbl">
          -5 callsubr
          -15 -45 -16 -46 -15 -44 rrcurveto
          -1 -38 -42 -1 -46 hhcurveto
          -13 -8 -25 -23 -15 -20 5 -1 71 -5 80 -5 -38 -109 -34 -94 -20 -46 16 -5 28 -6 19 -5 15 34 48 107 54 119 66 -3 62 -1 27 2 16 callgsubr
          -53 -7 -142 -6 vhcurveto
          56 127 55 -2 49 -1 23 2 rlinecurve
          4 callsubr
        </CharString>
        <CharString name="dcaron">
          223 -61 callsubr
          688 572 -94 callsubr
        </CharString>
        <CharString name="dcroat">
          23 10 callsubr
          69 71 69 81 54 75 rrcurveto
          2 51 34 1 10 8 callgsubr
          -4 -31 -2 -2 -43 hvcurveto
          28 48 18 42 32 vvcurveto
          19 -5 -40 44 -28 hhcurveto
          -59 -10 -73 -82 -64 -107 -42 -3 -37 -3 -22 -2 0 callgsubr
          90 6 rcurveline
          -28 -54 -24 -58 -20 -57 -13 8 -16 8 -9 1 rrcurveto
          -145 -45 -93 -144 -80 vvcurveto
          -24 33 -29 13 4 4 1 2 5 vhcurveto
          65 25 49 44 58 52 rrcurveto
          -2 -16 -1 -17 -14 vvcurveto
          -27 50 -49 24 66 97 96 50 51 9 callgsubr
          -11 -43 callgsubr
          -23 -23 -84 -79 -38 hhcurveto
          -5 -3 26 callgsubr
          -218 17 -12 callgsubr
          365 447 rmoveto
          79 41 38 55 19 hhcurveto
          3 0 -8 -4 -27 -18 -42 -29 -50 hvcurveto
          -18 -17 -1 -2 -19 hvcurveto
          11 -63 rmoveto
          -28 -39 -31 -41 -33 -41 16 41 16 40 17 38 rrcurveto
          endchar
        </CharString>
        <CharString name="degree">
          -172 373 592 rmoveto
          53 -70 55 -39 -94 -66 -86 -83 -48 64 -49 41 77 87 73 85 vhcurveto
          -81 60 rmoveto
          10 7 -9 -17 -70 -54 -64 -44 -13 -1 7 11 68 54 74 41 hvcurveto
          endchar
        </CharString>
        <CharString name="dieresis">
          188 431 -93 callsubr
        </CharString>
        <CharString name="divide">
          304 313 -60 callgsubr
          -66 93 10 callgsubr
          -64 -245 10 callgsubr
          endchar
        </CharString>
        <CharString name="dollar">
          43 450 727 rmoveto
          -17 19 -26 7 -14 8 -44 -108 rcurveline
          -120 -12 -99 -71 -124 vvcurveto
          -53 36 -58 32 -52 vhcurveto
          -40 -98 -39 -96 -31 -73 rrcurveto
          -27 4 -10 13 12 vvcurveto
          38 18 32 23 37 vhcurveto
          -84 52 rlineto
          -15 -26 -28 -55 -42 vvcurveto
          -13 3 -13 6 -9 vhcurveto
          13 -19 40 -46 39 -18 -20 -48 -13 -32 -2 -4 12 -6 12 -14 18 -4 44 102 rcurveline
          126 12 108 118 107 vvcurveto
          53 -32 52 -31 50 vhcurveto
          110 256 rlineto
          19 -3 18 -17 -13 vvcurveto
          -38 -28 -34 -28 -32 vhcurveto
          84 -52 rlineto
          26 45 16 52 32 vvcurveto
          8 -1 8 -7 11 vhcurveto
          -13 19 -33 39 -35 17 15 33 11 28 8 19 rrcurveto
          -205 -555 rmoveto
          -74 -37 -63 -64 -17 vhcurveto
          88 203 rlineto
          8 -18 5 -16 -15 vvcurveto
          -13 307 rmoveto
          37 36 51 56 25 vhcurveto
          -73 -179 rlineto
          -12 23 -7 22 21 vvcurveto
          endchar
        </CharString>
        <CharString name="dotaccent">
          253 421 -87 callgsubr
        </CharString>
        <CharString name="dotlessi">
          -89 callgsubr
          endchar
        </CharString>
        <CharString name="dotlessj">
          -40 callsubr
          endchar
        </CharString>
        <CharString name="e">
          -94 callgsubr
          endchar
        </CharString>
        <CharString name="eacute">
          -94 callgsubr
          147 212 -101 callsubr
        </CharString>
        <CharString name="ebreve">
          -94 callgsubr
          149 212 -93 callgsubr
        </CharString>
        <CharString name="ecaron">
          -94 callgsubr
          -45 234 -95 callsubr
        </CharString>
        <CharString name="ecircumflex">
          -94 callgsubr
          128 101 -105 callgsubr
        </CharString>
        <CharString name="edieresis">
          -94 callgsubr
          25 189 -93 callsubr
        </CharString>
        <CharString name="edotaccent">
          -94 callgsubr
          90 179 -87 callgsubr
        </CharString>
        <CharString name="egrave">
          -94 callgsubr
          70 107 -83 callsubr
        </CharString>
        <CharString name="eight">
          56 410 700 rmoveto
          -130 -127 -126 -126 -29 13 -47 15 -50 hvcurveto
          -115 -66 -109 -68 -128 vvcurveto
          -44 65 -99 51 85 206 83 141 22 -32 85 -24 85 vhcurveto
          112 61 108 58 124 7 -2 6 3 vvcurveto
          32 -9 -71 76 -36 hhcurveto
          -178 -567 rmoveto
          -79 -98 -68 -58 -21 0 35 11 115 63 68 79 54 vhcurveto
          18 -56 17 -53 -27 vvcurveto
          201 516 rmoveto
          13 -1 -13 -10 -110 -68 -69 -85 -57 hvcurveto
          -7 33 -5 31 25 vvcurveto
          69 57 89 96 12 vhcurveto
          endchar
        </CharString>
        <CharString name="ellipsis">
          328 144 63 -64 callsubr
          250 hmoveto
          -70 callgsubr
          250 hmoveto
          -70 callgsubr
          endchar
        </CharString>
        <CharString name="emacron">
          -94 callgsubr
          159 202 -81 callsubr
        </CharString>
        <CharString name="emdash">
          578 943 235 rmoveto
          -36 -900 0 -6 -39 hvcurveto
          5 callgsubr
          -4 28 886 4 59 8 callgsubr
          endchar
        </CharString>
        <CharString name="endash">
          78 398 235 rmoveto
          -14 -321 0 -6 -15 hvcurveto
          -7 -11 -14 -37 20 callgsubr
          14 34 5 23 rrcurveto
          endchar
        </CharString>
        <CharString name="eng">
          -16 115 -63 callsubr
          8 2 4 8 5 hvcurveto
          60 143 71 66 26 31 -23 -64 -30 -101 -29 -84 rrcurveto
          -125 -86 -92 -82 -11 callgsubr
          19 42 14 40 13 37 61 40 63 38 58 40 -22 26 rcurveline
          -143 -89 rlineto
          16 53 38 108 9 vvcurveto
          19 -60 39 -17 -14 -35 -20 -94 -81 vhcurveto
          8 22 25 callsubr
          21 rrcurveto
          -161 -526 3 callgsubr
          65 58 64 82 62 hvcurveto
          -71 -21 -85 -127 -29 hhcurveto
          endchar
        </CharString>
        <CharString name="eogonek">
          -107 176 -162 -53 callgsubr
          32 45 58 28 14 hvcurveto
          60 30 42 31 63 62 -24 24 rcurveline
          -57 callgsubr
          7 hvcurveto
          115 52 -32 callgsubr
          -84 -142 -83 -160 -28 57 -60 35 17 17 2 3 18 vhcurveto
          -26 -27 -25 -35 -36 -33 callsubr
          -32 404 -15 callsubr
          -48 -41 -49 -31 hvcurveto
          63 20 40 60 26 hhcurveto
          endchar
        </CharString>
        <CharString name="equal">
          295 273 -60 callgsubr
          41 129 -60 callgsubr
          endchar
        </CharString>
        <CharString name="eth">
          -102 350 606 rmoveto
          -6 -3 -32 -13 -42 -17 -16 45 -24 39 -32 32 -73 -67 rcurveline
          22 -23 19 -29 15 -34 -37 -15 -36 -17 -27 -13 8 -20 10 -17 9 -9 29 13 31 12 32 11 rrcurveto
          9 -37 6 -41 -47 -21 callgsubr
          34 -3 32 -5 31 vhcurveto
          40 13 37 12 31 10 -19 28 -13 16 -13 15 rrcurveto
          endchar
        </CharString>
        <CharString name="exclam">
          -94 378 613 rmoveto
          -6 18 -64 64 -50 21 -74 -276 -40 -140 -41 -101 14 -18 27 -18 28 -8 59 117 81 175 66 166 rrcurveto
          -224 -550 -62 callgsubr
        </CharString>
        <CharString name="exclamdown">
          -94 -94 -201 rmoveto
          6 -18 64 -64 50 -21 74 276 40 140 41 101 -14 18 -27 18 -28 8 -59 -117 -81 -175 -66 -166 rrcurveto
          365 584 -62 callgsubr
        </CharString>
        <CharString name="f">
          -121 284 150 rmoveto
          -96 -88 -67 -42 -93 -24 28 77 25 66 22 53 rrcurveto
          184 139 162 1 callgsubr
          -28 27 callsubr
          22 2 21 29 callgsubr
          -31 -87 -30 -94 -32 -99 22 callsubr
          108 30 94 54 96 98 rrcurveto
          -110 273 18 callgsubr
          -62 -110 -179 -137 -126 hvcurveto
          32 72 19 32 0 vvcurveto
          endchar
        </CharString>
        <CharString name="fi">
          88 310 -27 rmoveto
          -22 callgsubr
          28 callsubr
          17 callgsubr
          133 31 vvcurveto
          20 -65 38 -8 -5 -27 -67 -71 -25 vhcurveto
          -94 -86 -67 -41 -92 -24 28 77 25 66 22 54 rrcurveto
          183 138 163 1 callgsubr
          -90 -10 rcurveline
          7 -50 22 2 22 2 20 3 rlinecurve
          -30 -88 -31 -93 -32 -100 22 callsubr
          90 25 80 42 80 70 -6 -20 -5 -19 -3 -15 -3 callgsubr
          vhcurveto
          -113 425 18 callgsubr
          -63 -111 -178 -136 -126 hvcurveto
          32 71 19 33 0 vvcurveto
          306 36 rmoveto
          -24 callgsubr
          endchar
        </CharString>
        <CharString name="five">
          50 545 705 rmoveto
          -13 -82 -114 -9 -100 hhcurveto
          -87 -130 -82 -139 -6 -18 7 -12 30 -39 12 -9 24 5 121 55 83 -10 -27 -171 -261 -168 -152 -25 9 -13 48 -62 28 -32 rrcurveto
          202 63 225 220 183 vvcurveto
          11 -61 76 -24 -1 -21 3 -39 -152 vhcurveto
          105 156 rlineto
          -4 40 52 -3 89 hhcurveto
          34 29 63 84 9 vvcurveto
          1 -1 1 -1 vhcurveto
          endchar
        </CharString>
        <CharString name="fl">
          146 383 34 rmoveto
          -6 -3 4 20 31 9 59 22 74 hvcurveto
          73 70 69 89 -47 callgsubr
          -139 2 callsubr
          -30 -65 -32 -100 -13 -73 -88 -77 -65 -39 -87 -23 34 95 31 78 25 60 rrcurveto
          169 141 152 196 89 -1 callsubr
          -136 -271 -149 -429 -27 27 callsubr
          63 6 -30 -87 -30 -94 -32 -99 rlinecurve
          128 42 30 99 28 87 26 76 rlinecurve
          90 26 81 41 81 71 rrcurveto
          -11 2 -7 1 -4 vhcurveto
          -20 4 54 -66 40 hhcurveto
          -22 callgsubr
          28 callsubr
          -20 -23 -109 -90 -31 hhcurveto
          -184 364 rmoveto
          196 112 45 74 24 21 callsubr
          -50 -96 -146 -118 -121 hvcurveto
          17 37 11 17 0 vvcurveto
          268 -6 rmoveto
          182 80 69 -30 callsubr
          -23 -32 -35 -42 vhcurveto
          7 20 9 19 9 21 rrcurveto
          endchar
        </CharString>
        <CharString name="florin">
          33 371 346 rmoveto
          -8 -1 -71 -4 -78 -5 rrcurveto
          11 22 5 10 0 vvcurveto
          89 181 74 103 24 2 10 1 9 3 1 -31 rrcurveto
          -39 -28 -50 -32 -39 vhcurveto
          67 -52 rlineto
          39 53 24 59 42 vvcurveto
          -1 41 -61 64 -41 -4 -114 -39 -94 -127 -92 -206 -56 -4 -44 -3 -2 -2 -8 -16 -6 -11 -1 -12 rrcurveto
          4 40 -2 -1 51 hvcurveto
          -73 -175 -72 -223 -82 -270 128 53 rcurveline
          92 320 71 191 42 101 63 -2 55 -1 6 1 13 11 34 40 12 21 rrcurveto
          endchar
        </CharString>
        <CharString name="four">
          158 332 534 rmoveto
          27 -44 103 -16 -2 -1 -2 -2 -1 vhcurveto
          -63 -128 -96 -130 -109 -100 6 -15 38 -66 25 -24 44 1 65 1 72 2 -35 -77 -37 -79 -42 -86 9 -7 47 -24 18 -11 44 83 52 99 50 104 40 1 39 2 35 1 70 116 rcurveline
          -47 -8 -45 -8 -45 -7 47 98 44 98 36 87 -32 37 -44 50 -29 29 -44 -160 -45 -130 -51 -126 -72 -9 -69 -6 -68 -3 130 97 52 65 74 107 rrcurveto
          endchar
        </CharString>
        <CharString name="fraction">
          -10 callgsubr
        </CharString>
        <CharString name="g">
          -89 callsubr
          endchar
        </CharString>
        <CharString name="gbreve">
          -89 callsubr
          384 733 -93 callgsubr
        </CharString>
        <CharString name="gcircumflex">
          -89 callsubr
          363 622 -105 callgsubr
        </CharString>
        <CharString name="gcommaaccent">
          -10 callsubr
          rrcurveto
          9 27 27 83 13 -86 callsubr
          -252 276 rmoveto
          -24 51 -33 17 vhcurveto
          9 5 30 42 4 22 rrcurveto
          -5 5 -30 13 22 vvcurveto
          15 30 27 11 11 vhcurveto
          -1 3 -26 23 -5 1 rrcurveto
          -31 -25 -54 -68 -39 vvcurveto
          -184 -675 -27 callgsubr
          endchar
        </CharString>
        <CharString name="gdotaccent">
          -89 callsubr
          325 700 -87 callgsubr
        </CharString>
        <CharString name="germandbls">
          -17 438 669 rmoveto
          -15 18 -31 25 -23 5 -194 -47 -187 -411 -198 -620 128 42 rcurveline
          156 514 118 203 0 vvcurveto
          196 112 57 74 20 21 callsubr
          hvcurveto
          -233 -223 -59 -152 -22 9 -45 -36 vvcurveto
          -38 -15 -34 callsubr
          87 61 64 hvcurveto
          -22 26 rlineto
          0 -70 -66 -66 -40 vhcurveto
          17 22 6 30 21 36 -14 40 44 vvcurveto
          40 11 43 43 48 vhcurveto
          95 107 37 84 102 vvcurveto
          8 -1 3 -3 3 vhcurveto
          endchar
        </CharString>
        <CharString name="grave">
          233 349 -83 callsubr
        </CharString>
        <CharString name="greater">
          52 227 -14 callsubr
        </CharString>
        <CharString name="greaterequal">
          234 93 -60 callgsubr
          -192 134 -14 callsubr
        </CharString>
        <CharString name="guillemotleft">
          42 197 230 rmoveto
          -38 callgsubr
          184 hmoveto
          -38 callgsubr
          endchar
        </CharString>
        <CharString name="guillemotright">
          42 220 111 rmoveto
          -39 callsubr
          -184 hmoveto
          -39 callsubr
          endchar
        </CharString>
        <CharString name="guilsinglleft">
          -142 197 230 rmoveto
          -38 callgsubr
          endchar
        </CharString>
        <CharString name="guilsinglright">
          -142 36 111 rmoveto
          -39 callsubr
          endchar
        </CharString>
        <CharString name="h">
          -65 callsubr
          endchar
        </CharString>
        <CharString name="hbar">
          -21 callsubr
          -16 hhcurveto
          -13 7 callgsubr
          69 66 62 74 48 67 rrcurveto
          2 63 43 2 11 8 callgsubr
          -5 -42 -3 -3 -52 hvcurveto
          32 54 19 46 27 4 callgsubr
          -50 -3 -72 -93 -67 -120 -35 -2 -31 -2 -19 -2 0 callgsubr
          75 5 rcurveline
          -79 -156 -64 -181 -87 -48 callsubr
          81 630 rmoveto
          3 1 -4 -7 -33 -24 -50 -35 -56 hvcurveto
          -42 -3 rlineto
          91 46 38 62 13 hhcurveto
          -128 -219 rmoveto
          28 2 -22 -31 -22 -31 -24 -30 rlinecurve
          13 30 13 30 14 30 rrcurveto
          endchar
        </CharString>
        <CharString name="hcircumflex">
          -65 callsubr
          245 322 -105 callgsubr
        </CharString>
        <CharString name="hungarumlaut">
          229 454 -73 callsubr
        </CharString>
        <CharString name="hyphen">
          -4 callgsubr
        </CharString>
        <CharString name="i">
          -89 callgsubr
          193 461 rmoveto
          -24 callgsubr
          endchar
        </CharString>
        <CharString name="iacute">
          -89 callgsubr
          225 481 -101 callsubr
        </CharString>
        <CharString name="ibreve">
          -89 callgsubr
          227 481 -93 callgsubr
        </CharString>
        <CharString name="icircumflex">
          -89 callgsubr
          206 370 -105 callgsubr
        </CharString>
        <CharString name="idieresis">
          -89 callgsubr
          103 458 -93 callsubr
        </CharString>
        <CharString name="igrave">
          -89 callgsubr
          148 376 -83 callsubr
        </CharString>
        <CharString name="ij">
          3 407 146 rmoveto
          -146 -91 11 42 13 51 26 78 rlinecurve
          -28 callgsubr
          -4 -19 -68 -86 -26 vhcurveto
          -23 -27 -91 -80 -20 -59 callgsubr
          22 45 105 18 59 hvcurveto
          -49 callgsubr
          34 72 56 47 52 vhcurveto
          -11 -35 -11 -35 -12 -34 rrcurveto
          -18 callsubr
          21 50 13 35 11 34 61 39 63 39 59 40 rrcurveto
          -39 314 rmoveto
          8 -52 35 -23 -11 -37 -67 -29 -20 callsubr
          -188 hmoveto
          -24 callgsubr
          -229 -724 7 callsubr
          -71 -22 -84 -128 -30 hhcurveto
          endchar
        </CharString>
        <CharString name="imacron">
          -89 callgsubr
          237 471 -81 callsubr
        </CharString>
        <CharString name="iogonek">
          -213 75 -170 -53 callgsubr
          30 37 52 28 16 hvcurveto
          56 32 80 69 35 36 -22 24 rcurveline
          17 callgsubr
          125 39 vvcurveto
          -40 callgsubr
          -17 25 -21 21 -10 vhcurveto
          -30 -28 -38 -43 -43 -33 callsubr
          127 604 rmoveto
          -24 callgsubr
          endchar
        </CharString>
        <CharString name="itilde">
          -89 callgsubr
          176 445 -92 callsubr
        </CharString>
        <CharString name="j">
          -55 callgsubr
          -39 314 rmoveto
          8 -52 35 -23 -11 -37 -67 -29 -20 callsubr
          -299 -568 rmoveto
          -74 -34 -60 -82 -24 hhcurveto
          11 callsubr
          66 58 63 83 63 hvcurveto
          -6 -15 -6 -15 -6 -13 rrcurveto
          endchar
        </CharString>
        <CharString name="jcircumflex">
          -40 callsubr
          428 633 -105 callgsubr
        </CharString>
        <CharString name="k">
          -63 callgsubr
          endchar
        </CharString>
        <CharString name="kcommaaccent">
          -63 callgsubr
          -41 -581 -94 callsubr
        </CharString>
        <CharString name="kgreenlandic">
          -21 119 246 rmoveto
          -5 11 -82 49 -5 -3 rrcurveto
          -51 -114 -36 -157 -16 callgsubr
          7 5 20 callsubr
          8 13 28 43 22 27 rrcurveto
          -42 26 -13 callsubr
          0 -20 4 -41 59 vhcurveto
          82 50 64 73 -4 13 rrcurveto
          10 -3 -31 37 -16 hhcurveto
          -17 -62 -17 -159 -114 hvcurveto
          13 43 15 46 15 38 rrcurveto
          endchar
        </CharString>
        <CharString name="l">
          -157 -91 callgsubr
          endchar
        </CharString>
        <CharString name="lacute">
          -157 -91 callgsubr
          303 485 -101 callsubr
        </CharString>
        <CharString name="lcaron">
          31 -91 callgsubr
          389 251 -94 callsubr
        </CharString>
        <CharString name="lcommaaccent">
          -157 -91 callgsubr
          -77 -530 -94 callsubr
        </CharString>
        <CharString name="ldotaccent">
          55 -91 callgsubr
          231 -131 -62 callgsubr
        </CharString>
        <CharString name="less">
          280 333 -14 callgsubr
        </CharString>
        <CharString name="lessequal">
          252 93 -60 callgsubr
          36 240 -14 callgsubr
        </CharString>
        <CharString name="logicalnot">
          324 352 rmoveto
          2 1 -1 1 -2 -33 -215 1 -18 hhcurveto
          -5 -13 -22 -47 -7 -14 rrcurveto
          9 113 1 78 hhcurveto
          -9 -30 -13 -51 -17 -43 13 -3 34 -6 14 -4 26 64 28 78 26 64 rrcurveto
          endchar
        </CharString>
        <CharString name="lslash">
          -157 206 280 rmoveto
          -6 -3 -43 -14 -53 -18 2 9 3 9 3 8 rrcurveto
          70 63 63 76 0 vvcurveto
          121 142 25 69 28 vvcurveto
          7 -1 4 -5 4 vhcurveto
          -8 10 -28 27 -25 8 rrcurveto
          -23 -147 2 callsubr
          -21 -46 -20 -64 -14 -59 -25 -9 -24 -7 -18 -6 -2 -13 2 -20 2 -15 rrcurveto
          3 21 6 8 30 hvcurveto
          -5 -28 -3 -25 -19 -64 callgsubr
          -6 -3 4 20 25 5 45 12 56 hvcurveto
          59 18 53 16 9 4 3 14 -1 21 -5 23 rrcurveto
          -54 99 rmoveto
          195 86 75 75 12 hhcurveto
          3 0 -2 -2 -21 -39 -78 -90 -113 hvcurveto
          0 -18 -23 -29 -31 vhcurveto
          endchar
        </CharString>
        <CharString name="m">
          145 109 -63 callsubr
          7 5 20 callsubr
          50 126 66 69 31 35 rrcurveto
          -32 -94 -21 -91 -9 vvcurveto
          -25 24 31 -12 16 hhcurveto
          7 5 20 callsubr
          63 154 65 52 25 31 -23 -58 -29 -78 callsubr
          -12 -25 -15 -100 -87 vhcurveto
          7 22 7 21 8 21 2 5 -1 4 -2 2 rrcurveto
          14 -12 -52 30 -11 hhcurveto
          -20 -6 -21 -14 -82 -97 25 callsubr
          22 8 20 rrcurveto
          endchar
        </CharString>
        <CharString name="macron">
          322 444 -81 callsubr
        </CharString>
        <CharString name="micro">
          -37 313 90 rmoveto
          -26 -33 -34 -24 -11 19 callsubr
          -68 callsubr
          -2 -6 -6 -14 -6 -20 rrcurveto
          -132 11 callgsubr
          59 142 7 14 hvcurveto
          -4 8 -60 29 14 callgsubr
          -73 -187 -53 -151 -67 -187 107 29 rcurveline
          17 52 18 76 27 86 rrcurveto
          -20 4 14 -19 11 hhcurveto
          6 8 2 3 5 hvcurveto
          17 12 34 39 50 78 rrcurveto
          -11 -37 -8 -31 -10 vvcurveto
          -24 37 -31 22 30 61 44 42 51 vhcurveto
          endchar
        </CharString>
        <CharString name="minus">
          304 313 -60 callgsubr
          endchar
        </CharString>
        <CharString name="mu">
          -37 313 90 rmoveto
          -26 -33 -34 -24 -11 19 callsubr
          -68 callsubr
          -2 -6 -6 -14 -6 -20 rrcurveto
          -132 11 callgsubr
          59 142 7 14 hvcurveto
          -4 8 -60 29 14 callgsubr
          -73 -187 -53 -151 -67 -187 107 29 rcurveline
          17 52 18 76 27 86 rrcurveto
          -20 4 14 -19 11 hhcurveto
          6 8 2 3 5 hvcurveto
          17 12 34 39 50 78 rrcurveto
          -11 -37 -8 -31 -10 vvcurveto
          -24 37 -31 22 30 61 44 42 51 vhcurveto
          endchar
        </CharString>
        <CharString name="multiply">
          148 433 rmoveto
          -17 -6 -61 -23 -19 -11 19 -36 23 -42 23 -41 -60 -52 -53 -48 -6 -5 3 -13 7 -28 2 -15 137 108 rcurveline
          25 -46 23 -41 11 -22 12 8 22 13 13 9 -15 36 -16 44 -16 46 55 43 49 38 9 8 -4 15 -7 34 -10 28 -5 -4 -51 -45 -58 -52 -12 35 -12 34 -11 13 callgsubr
        </CharString>
        <CharString name="n">
          -88 callsubr
          endchar
        </CharString>
        <CharString name="nacute">
          -88 callsubr
          188 218 -101 callsubr
        </CharString>
        <CharString name="napostrophe">
          0 135 -92 callgsubr
          150 407 -94 callsubr
        </CharString>
        <CharString name="nbspace">
          -197 endchar
        </CharString>
        <CharString name="ncaron">
          -88 callsubr
          -4 240 -95 callsubr
        </CharString>
        <CharString name="ncommaaccent">
          -88 callsubr
          29 -384 -94 callsubr
        </CharString>
        <CharString name="nine">
          38 -11 -76 rmoveto
          262 107 230 253 288 vvcurveto
          20 -5 13 -5 8 vhcurveto
          18 -10 -55 71 -24 hhcurveto
          -170 -174 -299 -118 -15 hvcurveto
          -18 3 62 -73 25 hhcurveto
          -2 97 31 93 104 hvcurveto
          -61 -95 -93 -97 -142 -74 -6 -18 -15 -60 -6 -50 rrcurveto
          129 343 rmoveto
          154 55 139 216 79 hhcurveto
          8 6 -11 -24 -42 -10 -60 -26 -66 hvcurveto
          -67 -73 -93 -57 -91 -37 rrcurveto
          endchar
        </CharString>
        <CharString name="notequal">
          336 402 rmoveto
          -5 -36 -3 -3 -44 hvcurveto
          68 129 -67 26 -79 -160 rlineto
          -3 -54 -50 -3 -8 hhcurveto
          -5 -13 -17 -37 -7 -14 107 1 rcurveline
          -11 -22 -10 -19 -10 -20 rrcurveto
          -3 -45 -36 -2 -7 -24 callsubr
          83 hlineto
          -36 -72 -27 -52 -8 -15 12 -9 17 -11 20 -7 90 167 rcurveline
          123 1 -9 callsubr
          rlinecurve
          -6 -52 -3 -4 -56 hvcurveto
          30 56 95 1 -9 callsubr
          rlinecurve
          endchar
        </CharString>
        <CharString name="ntilde">
          -88 callsubr
          139 182 -92 callsubr
        </CharString>
        <CharString name="numbersign">
          58 437 567 rmoveto
          -16 19 -27 20 -15 8 -85 -202 rcurveline
          -23 -2 -22 -1 -23 -1 28 59 27 56 20 44 -16 19 -27 20 -15 8 -88 -210 rcurveline
          -49 -3 -36 -3 -2 -1 -8 -16 -6 -11 -1 -12 3 -1 33 -1 46 -1 -26 -62 rcurveline
          -42 -33 -1 -4 hhcurveto
          -5 -10 -5 -12 -2 -17 70 -8 rcurveline
          -37 -90 -31 -74 -5 -9 11 -6 11 -6 19 -6 19 40 33 69 37 77 74 -8 rcurveline
          -35 -84 -29 -67 -4 -9 11 -6 11 -6 19 -6 17 38 31 63 34 72 rrcurveto
          -4 40 30 -3 6 hhcurveto
          12 7 34 46 13 19 rrcurveto
          -5 -43 1 -54 hhcurveto
          28 58 rlineto
          -1 41 31 0 4 hhcurveto
          13 11 34 40 12 21 -5 -1 -44 -3 -55 -3 27 57 25 53 19 42 rrcurveto
          -167 -215 rmoveto
          -25 -59 rlineto
          -74 hlineto
          29 61 rlineto
          endchar
        </CharString>
        <CharString name="o">
          -103 callsubr
          endchar
        </CharString>
        <CharString name="oacute">
          -103 callsubr
          251 404 -101 callsubr
        </CharString>
        <CharString name="obreve">
          -103 callsubr
          253 404 -93 callgsubr
        </CharString>
        <CharString name="ocircumflex">
          -103 callsubr
          232 293 -105 callgsubr
        </CharString>
        <CharString name="odieresis">
          -103 callsubr
          129 381 -93 callsubr
        </CharString>
        <CharString name="oe">
          105 504 -80 callgsubr
          -40 -54 -19 -37 -45 vhcurveto
          24 -10 -34 28 -18 hhcurveto
          -10 -7 -2 -3 -4 hvcurveto
          5 -10 -10 3 -7 15 callgsubr
          -30 49 -54 39 37 45 30 42 39 vhcurveto
          -30 8 51 -50 32 hhcurveto
          83 92 38 117 119 hvcurveto
          -492 -70 rmoveto
          23 10 45 35 53 vhcurveto
          33 52 32 24 16 12 rrcurveto
          8 -4 8 -6 -9 vvcurveto
          -68 -98 -137 -33 -7 -4 5 10 vhcurveto
          320 192 -15 callsubr
          -48 -42 -49 -23 callgsubr
          endchar
        </CharString>
        <CharString name="ogonek">
          151 -157 -53 callgsubr
          32 46 51 24 19 hvcurveto
          -47 hlineto
          -31 -27 -47 -48 -48 -33 callsubr
          endchar
        </CharString>
        <CharString name="ograve">
          -103 callsubr
          174 299 -83 callsubr
        </CharString>
        <CharString name="ohungarumlaut">
          -103 callsubr
          153 404 -73 callsubr
        </CharString>
        <CharString name="omacron">
          -103 callsubr
          263 394 -81 callsubr
        </CharString>
        <CharString name="one">
          -94 376 608 rmoveto
          -10 7 -57 61 -29 25 -68 -67 -111 -60 -16 -9 rrcurveto
          -3 33 -30 9 -5 vhcurveto
          10 5 48 26 44 28 -67 -173 -82 -225 -122 -224 12 -9 50 -34 12 -8 45 83 266 528 33 84 rrcurveto
          endchar
        </CharString>
        <CharString name="onehalf">
          320 669 313 rmoveto
          -6 13 -50 51 -23 2 rrcurveto
          -103 -130 -90 -84 -5 43 -38 12 34 64 30 30 25 hvcurveto
          -6 5 -26 25 -10 9 rrcurveto
          -34 -24 -40 -31 -8 hhcurveto
          -2 0 2 3 hvcurveto
          37 -2 123 107 51 hhcurveto
          8 3 -9 -7 -87 -67 -123 -264 -110 hvcurveto
          3 -12 13 -24 7 -7 58 2 118 1 43 2 rrcurveto
          18 22 42 53 7 vvcurveto
          1 0 0 -1 -10 -96 -27 -13 -86 vhcurveto
          225 105 67 77 100 vvcurveto
          5 -1 9 -2 3 vhcurveto
          -145 396 -54 callsubr
          -219 -66 -19 callsubr
        </CharString>
        <CharString name="onequarter">
          308 524 -30 callgsubr
          39 hhcurveto
          -19 17 callsubr
          31 54 31 57 69 1 rcurveline
          45 70 -28 -4 -27 -5 -27 -3 13 callsubr
          -72 -30 -71 27 callgsubr
          33 34 41 56 rrcurveto
          -211 365 -19 callsubr
        </CharString>
        <CharString name="onesuperior">
          -206 315 637 rmoveto
          -7 5 -48 43 -20 15 -45 -41 -76 -37 -10 -5 rrcurveto
          -2 22 -27 5 -3 vhcurveto
          8 3 28 16 29 17 -44 -105 -53 -130 -82 -136 9 -5 44 -27 8 -5 30 50 180 322 22 52 rrcurveto
          endchar
        </CharString>
        <CharString name="ordfeminine">
          -71 402 504 rmoveto
          -9 -12 -27 -11 -4 -59 callgsubr
          11 2 34 25 52 hvcurveto
          12 -21 38 -13 8 vhcurveto
          -19 -33 -48 -40 1 vvcurveto
          -32 -39 -33 -28 -15 hhcurveto
          -5 -1 3 4 13 13 30 40 40 hvcurveto
          0 44 45 49 26 vhcurveto
          0 2 1 -1 1 vhcurveto
          -4 6 -28 17 -12 4 -29 callgsubr
          -58 -17 -56 -50 0 vvcurveto
          -84 -77 -8 -75 -6 vvcurveto
          -23 30 -25 11 2 8 callsubr
          2 vhcurveto
          47 15 66 49 37 39 rrcurveto
          -14 -43 3 -14 -10 vvcurveto
          -23 30 -16 20 23 48 31 30 36 vhcurveto
          -87 -102 rmoveto
          -17 -1 -224 -46 callgsubr
          203 -52 callsubr
        </CharString>
        <CharString name="ordmasculine">
          -143 181 491 rmoveto
          20 8 38 30 45 vhcurveto
          40 62 27 7 3 5 rrcurveto
          5 -23 27 -15 -2 -6 25 callgsubr
          vhcurveto
          -103 -28 -45 -88 -85 vvcurveto
          -25 42 -46 33 71 108 92 82 vhcurveto
          -3 8 -28 37 -12 13 rrcurveto
          -2 -2 -2 -3 -58 -83 -116 -28 -6 -3 26 callgsubr
          101 -107 -81 callsubr
        </CharString>
        <CharString name="oslash">
          -58 callsubr
          endchar
        </CharString>
        <CharString name="oslashacute">
          -58 callsubr
          124 330 -101 callsubr
        </CharString>
        <CharString name="otilde">
          -103 callsubr
          202 368 -92 callsubr
        </CharString>
        <CharString name="p">
          -27 101 229 rmoveto
          2 6 2 5 -1 2 -9 17 -43 34 -21 6 rrcurveto
          -5 -1 -3 -7 -2 hvcurveto
          -70 -214 -88 -209 -76 -214 124 29 rcurveline
          29 88 32 91 30 87 74 181 102 103 18 5 rrcurveto
          0 7 3 -12 vvcurveto
          -11 -21 -58 -18 callgsubr
          -87 -71 hvcurveto
          endchar
        </CharString>
        <CharString name="paragraph">
          228 546 658 rmoveto
          -49 -259 -88 -386 -14 -57 14 -6 20 -8 21 -1 27 113 118 451 40 197 rrcurveto
          -24 hlineto
          -280 -261 -135 -147 -40 31 -76 125 45 48 9 15 40 hvcurveto
          -38 -177 -37 -159 -9 -36 14 -6 20 -8 21 -1 25 106 106 405 43 201 14 2 14 2 14 1 rrcurveto
          -314 -235 rmoveto
          90 67 81 123 40 vhcurveto
          -15 -76 -17 -85 -18 -84 rrcurveto
          -63 -26 -77 -14 74 vvcurveto
          endchar
        </CharString>
        <CharString name="parenleft">
          -42 480 679 rmoveto
          -28 36 -33 35 -35 31 rrcurveto
          -251 -188 -113 -303 -320 vvcurveto
          -28 1 -44 2 -28 vhcurveto
          23 -1 14 -2 20 3 rrcurveto
          436 205 252 195 121 vhcurveto
          endchar
        </CharString>
        <CharString name="parenright">
          -42 211 747 rmoveto
          10 -43 8 -73 -64 vvcurveto
          -200 -26 -225 -263 -239 vhcurveto
          16 -11 14 -9 22 -9 rrcurveto
          227 194 138 265 294 vvcurveto
          64 -4 55 -6 35 vhcurveto
          -38 -6 -42 -8 -56 -20 rrcurveto
          endchar
        </CharString>
        <CharString name="partialdiff">
          -102 125 622 rmoveto
          54 -57 36 -86 -123 -21 callgsubr
          115 -32 95 -65 64 vhcurveto
          endchar
        </CharString>
        <CharString name="percent">
          425 -69 callsubr
          endchar
        </CharString>
        <CharString name="period">
          -172 144 63 -62 callgsubr
        </CharString>
        <CharString name="periodcentered">
          -172 164 261 -62 callgsubr
        </CharString>
        <CharString name="perthousand">
          795 -69 callsubr
          630 159 -51 callgsubr
          endchar
        </CharString>
        <CharString name="plus">
          -34 callgsubr
          endchar
        </CharString>
        <CharString name="plusminus">
          -34 callgsubr
          6 -294 -60 callgsubr
          endchar
        </CharString>
        <CharString name="q">
          -17 383 144 rmoveto
          -91 -86 -24 5 -15 vvcurveto
          -10 vlineto
          -78 -87 -239 -56 -2 0 1 2 63 166 345 -2 27 vhcurveto
          13 -41 58 -12 -2 0 25 callgsubr
          vhcurveto
          -77 -51 -98 -83 -32 hhcurveto
          -6 -3 4 6 50 130 98 42 23 hvcurveto
          2 1 0 1 1 vvcurveto
          9 -46 21 -13 vhcurveto
          -93 -28 -142 -127 -87 vvcurveto
          -29 40 -34 14 64 80 74 58 53 vhcurveto
          -48 -121 -104 -193 -47 vvcurveto
          -8 3 -4 3 -4 vhcurveto
          17 -18 54 -55 25 -1 rrcurveto
          79 -4 101 209 140 vvcurveto
          11 0 11 -2 9 vhcurveto
          53 38 52 48 0 vvcurveto
          endchar
        </CharString>
        <CharString name="question">
          120 584 572 rmoveto
          30 -21 -69 96 -40 hhcurveto
          -169 2 -141 -130 -18 -21 rrcurveto
          -12 8 92 -65 13 hhcurveto
          126 78 101 28 37 hhcurveto
          20 13 -9 -39 -111 -161 -167 -161 -22 hvcurveto
          -11 -32 -15 -40 -10 -26 13 -11 41 -21 20 -5 rrcurveto
          0 24 44 29 54 vhcurveto
          174 51 161 142 109 vvcurveto
          9 -2 11 -6 9 vhcurveto
          -390 -509 -62 callgsubr
        </CharString>
        <CharString name="questiondown">
          120 -78 -160 rmoveto
          -30 21 69 -96 40 hhcurveto
          169 -2 141 130 18 21 rrcurveto
          12 -8 -92 65 -13 hhcurveto
          -126 -78 -101 -28 -37 hhcurveto
          -20 -13 9 39 111 161 167 161 22 hvcurveto
          11 32 15 40 10 26 -13 11 -41 21 -20 5 rrcurveto
          0 -24 -43 -29 -55 vhcurveto
          -175 -51 -160 -142 -109 vvcurveto
          -9 2 -11 6 -9 vhcurveto
          532 542 -62 callgsubr
        </CharString>
        <CharString name="quotedbl">
          -51 259 647 rmoveto
          -26 callsubr
          170 hmoveto
          -26 callsubr
          endchar
        </CharString>
        <CharString name="quotedblbase">
          -62 73 -6 callgsubr
          160 -7 callgsubr
        </CharString>
        <CharString name="quotedblleft">
          -62 118 543 rmoveto
          -32 callsubr
          160 hmoveto
          -32 callsubr
          endchar
        </CharString>
        <CharString name="quotedblright">
          -62 460 632 -74 callgsubr
          -160 -7 callgsubr
        </CharString>
        <CharString name="quoteleft">
          -222 118 543 rmoveto
          -32 callsubr
          endchar
        </CharString>
        <CharString name="quoteright">
          -222 300 632 rmoveto
          -6 callsubr
        </CharString>
        <CharString name="quotesinglbase">
          -222 73 -6 callgsubr
          endchar
        </CharString>
        <CharString name="quotesingle">
          -221 259 647 rmoveto
          -26 callsubr
          endchar
        </CharString>
        <CharString name="r">
          -84 callsubr
          endchar
        </CharString>
        <CharString name="racute">
          -84 callsubr
          93 260 -101 callsubr
        </CharString>
        <CharString name="rcaron">
          -84 callsubr
          -99 282 -95 callsubr
        </CharString>
        <CharString name="rcommaaccent">
          -84 callsubr
          -95 -340 -94 callsubr
        </CharString>
        <CharString name="registered">
          79 318 700 rmoveto
          -107 -125 -76 -159 -125 109 -49 81 129 102 104 117 124 -92 64 -97 hvcurveto
          -170 -242 rmoveto
          105 69 95 97 80 55 -54 -83 -85 -68 -106 -98 -75 -60 41 87 vhcurveto
          256 119 rmoveto
          9 -32 32 -11 -14 -14 -3 -5 -14 vhcurveto
          -9 7 -21 9 -12 5 -1 -14 -3 -18 -4 -19 -50 -39 -40 -60 -11 -38 -1 -4 -3 -11 5 -10 1 -3 34 -34 6 1 rrcurveto
          5 4 2 1 2 hvcurveto
          20 11 23 41 19 45 9 -43 14 -43 3 -10 10 3 37 6 10 3 -10 18 -17 30 -14 34 rrcurveto
          56 24 23 36 37 vvcurveto
          -88 -2 rmoveto
          9 15 11 7 8 hhcurveto
          4 1 -4 -10 -11 -10 -38 -53 -24 hvcurveto
          10 25 9 26 5 20 rrcurveto
          -116 -146 rmoveto
          -2 -1 3 1 17 23 32 29 32 hvcurveto
          -46 -16 -20 -39 -13 hhcurveto
          endchar
        </CharString>
        <CharString name="ring">
          297 431 -59 callsubr
        </CharString>
        <CharString name="s">
          -77 callsubr
          endchar
        </CharString>
        <CharString name="sacute">
          -77 callsubr
          300 363 -101 callsubr
        </CharString>
        <CharString name="scaron">
          -77 callsubr
          108 385 -95 callsubr
        </CharString>
        <CharString name="scedilla">
          -107 120 -106 -12 callsubr
          20 45 rlineto
          -1 6 5 -1 6 hhcurveto
          66 102 89 61 64 28 callsubr
          0 -69 -66 -67 -40 vhcurveto
          17 22 -27 callsubr
          -20 -41 -30 -4 hvcurveto
          -21 -56 -50 -43 -30 -29 23 -24 rcurveline
          24 21 36 33 22 26 rrcurveto
          3 -24 4 -26 -27 vvcurveto
          -38 -13 -25 callgsubr
          4 -12 23 -20 26 -14 -10 -26 -18 -36 -11 -25 rrcurveto
          -47 callsubr
        </CharString>
        <CharString name="scircumflex">
          -77 callsubr
          281 252 -105 callgsubr
        </CharString>
        <CharString name="section">
          4 335 331 rmoveto
          -11 100 -84 45 -7 68 -4 44 19 61 63 6 14 1 6 -6 2 -13 1 -17 -10 -48 -16 -30 76 -39 rcurveline
          16 48 -5 38 -3 29 -1 7 -2 7 -6 10 -13 20 -38 48 -30 -3 -92 -9 -73 -80 9 -95 2 -23 7 -20 10 -19 -61 -28 -40 -63 7 -70 11 -100 84 -45 7 -68 rrcurveto
          4 -44 -19 -61 -63 -6 -14 -1 -6 6 -2 13 -1 17 10 48 16 30 -76 39 rcurveline
          -16 -48 5 -38 3 -29 1 -7 2 -7 6 -10 13 -20 38 -48 30 3 92 9 73 80 -9 95 -2 22 -8 21 -9 18 61 29 40 64 -7 69 rrcurveto
          -92 -5 rmoveto
          6 -57 -14 -37 -24 -17 -23 31 -22 28 -3 31 -6 57 13 37 25 16 22 -30 23 -28 3 -31 rrcurveto
          endchar
        </CharString>
        <CharString name="semicolon">
          -122 162 -6 callgsubr
          66 215 -62 callgsubr
        </CharString>
        <CharString name="seven">
          25 487 619 rmoveto
          -12 14 -37 51 -9 7 -80 3 -146 -3 -119 12 2 -22 16 -67 3 -41 139 15 69 9 93 12 -143 -202 -123 -201 -150 -217 13 -17 108 -54 12 -4 171 365 83 169 110 171 rrcurveto
          endchar
        </CharString>
        <CharString name="six">
          38 467 702 rmoveto
          -262 -107 -230 -253 -288 vvcurveto
          -20 5 -13 5 -8 vhcurveto
          -18 10 55 -71 24 hhcurveto
          170 174 299 118 15 hvcurveto
          18 -3 -62 73 -25 hhcurveto
          1 -96 -31 -94 -104 hvcurveto
          60 95 94 98 142 74 6 18 15 60 6 50 rrcurveto
          -129 -343 rmoveto
          -154 -55 -138 -216 -80 hhcurveto
          -8 -6 11 24 42 10 59 25 67 hvcurveto
          68 72 92 58 92 37 rrcurveto
          endchar
        </CharString>
        <CharString name="slash">
          99 621 679 rmoveto
          -24 33 -9 12 -29 36 -260 -350 -120 -161 -249 -293 16 -20 8 -10 21 -26 126 138 435 535 85 106 rrcurveto
          endchar
        </CharString>
        <CharString name="space">
          -197 endchar
        </CharString>
        <CharString name="sterling">
          107 408 309 rmoveto
          -7 -1 -62 -1 -70 -1 rrcurveto
          172 83 79 180 45 hhcurveto
          6 7 -3 -24 -39 -28 -50 -32 -39 hvcurveto
          77 -52 rlineto
          39 53 14 59 42 vvcurveto
          40 -69 61 -40 -126 -85 -202 -199 -86 vhcurveto
          -50 -1 -39 -2 -2 -1 -8 -16 -6 -21 -1 -12 3 -1 34 -1 45 -1 -32 -74 -24 -53 -20 -38 rrcurveto
          6 -39 -35 6 -22 hhcurveto
          -30 -43 -47 -35 -7 2 -6 3 -3 hvcurveto
          -12 12 43 -28 32 hhcurveto
          29 39 14 45 46 hvcurveto
          66 -17 81 -21 76 -9 rrcurveto
          0 43 46 65 87 vhcurveto
          -25 -105 -37 -5 -112 hhcurveto
          -9 -9 0 1 -10 hvcurveto
          18 24 19 29 19 34 14 26 16 30 14 30 113 -3 rcurveline
          13 11 31 33 12 21 rrcurveto
          -461 -308 rmoveto
          -6 -1 2 4 hvcurveto
          9 2 15 28 12 hhcurveto
          11 18 -3 -6 22 hvcurveto
          -27 -22 -21 -7 -30 hhcurveto
          endchar
        </CharString>
        <CharString name="t">
          -193 25 -3 callsubr
          -95 -82 -57 callsubr
          57 44 123 46 114 hvcurveto
          97 hlineto
          -70 callsubr
          -46 -119 -47 -138 -40 vvcurveto
          -22 57 -47 22 vhcurveto
          endchar
        </CharString>
        <CharString name="tbar">
          -193 252 339 rmoveto
          -70 callsubr
          -10 -26 -9 -25 -10 -26 -31 -1 -24 -1 -5 -2 -7 -11 -8 -17 29 callsubr
          -2 4 25 0 33 hhcurveto
          -27 -77 -20 -68 -26 vvcurveto
          -22 57 -47 22 -22 callgsubr
          vhcurveto
          -76 callgsubr
          -95 -82 -57 callsubr
          36 18 63 24 70 hvcurveto
          76 1 8 12 8 14 5 23 rlinecurve
          -79 hlineto
          10 25 10 25 10 25 rrcurveto
          endchar
        </CharString>
        <CharString name="tcaron">
          -126 25 -3 callsubr
          -95 -82 -57 callsubr
          57 44 123 46 114 hvcurveto
          97 hlineto
          -70 callsubr
          -46 -119 -47 -138 -40 vvcurveto
          -22 57 -47 22 vhcurveto
          385 670 -94 callsubr
        </CharString>
        <CharString name="tcommaaccent">
          -193 25 -3 callsubr
          -95 -82 -57 callsubr
          57 44 123 46 114 hvcurveto
          97 hlineto
          -70 callsubr
          -46 -119 -47 -138 -40 vvcurveto
          -22 57 -47 22 vhcurveto
          38 -111 -94 callsubr
        </CharString>
        <CharString name="thorn">
          -27 135 708 rmoveto
          -79 -374 -139 -326 -128 -356 124 29 rcurveline
          31 96 31 89 29 86 74 178 102 101 18 5 rrcurveto
          0 7 1 -10 vvcurveto
          -10 -21 -59 -18 callgsubr
          -88 -72 hvcurveto
          51 144 48 141 48 157 -26 27 -27 28 -42 32 rrcurveto
          endchar
        </CharString>
        <CharString name="three">
          73 521 575 rmoveto
          -18 37 -70 84 -26 2 rrcurveto
          -116 -207 -113 -110 -12 49 -55 19 -3 hvcurveto
          -1 3 4 0 6 hhcurveto
          56 75 32 48 49 hvcurveto
          -14 16 -30 30 -13 10 rrcurveto
          -34 -32 -54 -55 -27 2 callgsubr
          2 5 66 184 116 56 14 5 -10 -12 -99 -85 -184 -194 hvcurveto
          -12 28 -62 11 -5 vhcurveto
          0 3 -6 99 -31 vhcurveto
          -123 -81 -207 -74 -94 hhcurveto
          12 -17 67 -85 11 -9 rrcurveto
          199 43 186 227 63 vvcurveto
          4 -2 4 -5 2 vhcurveto
          0 -21 6 -100 36 vhcurveto
          123 41 148 68 148 vvcurveto
          9 -1 7 -3 6 vhcurveto
          endchar
        </CharString>
        <CharString name="threequarters">
          401 617 -30 callgsubr
          38 hhcurveto
          -18 17 callsubr
          32 54 31 57 68 1 rcurveline
          45 70 -28 -4 -27 -4 -27 -4 13 callsubr
          -73 -30 -70 27 callgsubr
          32 34 42 56 rrcurveto
          -196 355 rmoveto
          -10 20 -53 45 -15 2 rrcurveto
          -82 -123 -63 -59 -7 29 -30 13 -2 hvcurveto
          50 46 17 27 29 hvcurveto
          -8 8 -18 16 -9 7 rrcurveto
          -19 -18 -29 -24 -16 hhcurveto
          -3 -2 0 2 30 108 61 34 8 3 -6 -6 -55 -51 -96 -118 hvcurveto
          -7 19 -37 6 -3 vhcurveto
          0 2 -2 56 -16 vhcurveto
          -65 -51 -129 -32 -56 hhcurveto
          7 -10 47 -55 7 -5 rrcurveto
          121 24 122 124 34 26 callsubr
          -12 2 -62 19 vhcurveto
          76 22 90 38 81 vvcurveto
          5 -1 4 -2 4 vhcurveto
          endchar
        </CharString>
        <CharString name="threesuperior">
          -89 430 625 rmoveto
          -12 23 -58 50 -17 2 rrcurveto
          -92 -136 -70 -66 -8 32 -33 14 -2 hvcurveto
          18 hlineto
          38 51 19 30 33 hvcurveto
          -9 9 -20 18 -10 7 rrcurveto
          -21 -21 -32 -27 -18 hhcurveto
          -3 -2 0 3 33 120 68 38 9 3 -7 -7 -61 -57 -107 -131 hvcurveto
          -7 21 -42 7 -3 vhcurveto
          0 2 -3 63 -18 vhcurveto
          -72 -57 -144 -35 -62 hhcurveto
          8 -11 52 -61 8 -6 rrcurveto
          134 27 136 138 38 26 callsubr
          -14 3 -67 21 vhcurveto
          83 25 100 42 90 vvcurveto
          6 -1 4 -2 4 vhcurveto
          endchar
        </CharString>
        <CharString name="tilde">
          261 418 -92 callsubr
        </CharString>
        <CharString name="trademark">
          296 718 667 rmoveto
          -9 1 -38 2 -14 1 -13 -33 -23 -73 -20 -83 -39 -61 -43 -34 -7 2 -9 2 2 52 1 34 1 84 17 89 2 8 -7 8 -67 71 -6 2 -6 -42 -3 -38 -3 -34 rrcurveto
          -16 23 -35 45 -7 8 rrcurveto
          -162 -128 -66 -6 -5 hvcurveto
          -6 -53 45 19 45 12 45 6 rlinecurve
          -23 -80 -43 -137 -35 -83 6 -7 27 -43 10 -10 29 58 94 205 26 95 -8 8 rcurveline
          13 hlineto
          54 40 -2 -1 33 hvcurveto
          -4 -61 -47 -111 -62 -91 -49 -43 rlinecurve
          8 -9 23 -18 7 -7 18 14 60 68 43 56 3 -34 4 -18 3 -4 7 -11 36 -31 14 8 rrcurveto
          0 38 13 44 53 vhcurveto
          -14 -69 -11 -66 -47 vvcurveto
          12 7 64 32 13 9 1 186 33 112 41 113 rrcurveto
          endchar
        </CharString>
        <CharString name="two">
          138 556 579 rmoveto
          -11 23 -66 94 -38 3 rrcurveto
          -159 -207 -164 -150 -11 56 -69 20 55 105 54 55 40 hvcurveto
          -9 10 -39 40 -17 15 rrcurveto
          -60 -40 -71 -67 -13 hhcurveto
          -3 0 3 5 hvcurveto
          67 -3 211 221 83 hhcurveto
          13 4 -18 -11 -160 -116 -239 -431 -198 hvcurveto
          6 -23 21 -36 11 -13 94 3 177 2 71 3 rrcurveto
          30 41 62 86 10 vvcurveto
          2 -1 0 -1 -17 -182 -59 -19 -146 vhcurveto
          400 198 115 145 186 vvcurveto
          10 -1 16 -3 5 vhcurveto
          endchar
        </CharString>
        <CharString name="twosuperior">
          -44 445 627 rmoveto
          -7 14 -55 57 -26 2 rrcurveto
          -114 -144 -100 -92 -6 48 -42 13 38 71 33 33 27 hvcurveto
          -6 6 -29 28 -11 9 rrcurveto
          -37 -27 -44 -34 -9 hhcurveto
          -2 0 2 3 hvcurveto
          41 -2 136 119 56 hhcurveto
          9 3 -11 -7 -97 -74 -136 -292 -121 hvcurveto
          4 -14 14 -26 8 -8 64 2 130 1 48 2 rrcurveto
          20 25 46 59 7 vvcurveto
          1 0 0 -1 -11 -109 -30 -15 -95 vhcurveto
          252 117 74 86 110 vvcurveto
          6 -1 10 -2 3 vhcurveto
          endchar
        </CharString>
        <CharString name="u">
          -106 callgsubr
          endchar
        </CharString>
        <CharString name="uacute">
          -106 callgsubr
          69 411 -101 callsubr
        </CharString>
        <CharString name="ubreve">
          -106 callgsubr
          71 411 -93 callgsubr
        </CharString>
        <CharString name="ucircumflex">
          -106 callgsubr
          50 300 -105 callgsubr
        </CharString>
        <CharString name="udieresis">
          -106 callgsubr
          -53 388 -93 callsubr
        </CharString>
        <CharString name="ugrave">
          -106 callgsubr
          -8 306 -83 callsubr
        </CharString>
        <CharString name="uhungarumlaut">
          -106 callgsubr
          -29 411 -73 callsubr
        </CharString>
        <CharString name="umacron">
          -106 callgsubr
          81 401 -81 callsubr
        </CharString>
        <CharString name="underscore">
          -47 255 -145 rmoveto
          -14 -321 0 22 callgsubr
          -16 -47 20 callgsubr
          16 44 5 23 rrcurveto
          endchar
        </CharString>
        <CharString name="uni00AD">
          -4 callgsubr
        </CharString>
        <CharString name="uni2215">
          -10 callgsubr
        </CharString>
        <CharString name="uogonek">
          -21 281 -157 -53 callgsubr
          30 35 50 29 17 hvcurveto
          53 31 70 62 31 32 -22 24 rcurveline
          -20 -23 -100 -84 -21 19 callsubr
          2 11 rlineto
          -50 callgsubr
          -2 -6 -6 -14 -6 -20 rrcurveto
          -132 11 callgsubr
          66 139 7 14 hvcurveto
          -4 8 -67 32 -24 4 rrcurveto
          -50 callsubr
          -108 -60 callsubr
          17 12 56 40 59 80 rrcurveto
          -11 -38 -9 -33 -10 vvcurveto
          -20 25 -24 22 -8 vhcurveto
          -27 -27 -26 -37 -36 -33 callsubr
          endchar
        </CharString>
        <CharString name="uring">
          -106 callgsubr
          41 388 -59 callsubr
        </CharString>
        <CharString name="utilde">
          -106 callgsubr
          20 375 -92 callsubr
        </CharString>
        <CharString name="v">
          -74 205 51 rmoveto
          54 40 19 -20 callgsubr
          -25 -21 -52 hhcurveto
          -6 -4 1 1 -4 hvcurveto
          38 47 27 48 27 -1 callgsubr
          -21 -19 -42 -94 -42 vvcurveto
          -9 3 -11 6 -10 vhcurveto
          -33 -28 -32 -27 -21 -9 callgsubr
          32 120 -31 callgsubr
          rrcurveto
          -28 -76 -37 -88 -86 vvcurveto
          -35 62 -37 20 vhcurveto
          39 3 51 36 43 46 rrcurveto
          -5 10 12 -2 14 hhcurveto
          endchar
        </CharString>
        <CharString name="w">
          -95 callgsubr
          endchar
        </CharString>
        <CharString name="wacute">
          -95 callgsubr
          158 481 -101 callsubr
        </CharString>
        <CharString name="wcircumflex">
          -95 callgsubr
          139 370 -105 callgsubr
        </CharString>
        <CharString name="wdieresis">
          -95 callgsubr
          36 458 -93 callsubr
        </CharString>
        <CharString name="wgrave">
          -95 callgsubr
          81 376 -83 callsubr
        </CharString>
        <CharString name="x">
          -14 224 41 rmoveto
          -3 5 -9 46 -9 48 76 63 68 57 3 3 rrcurveto
          1 1 1 1 1 vvcurveto
          4 1 -30 22 -7 hhcurveto
          -3 -2 -1 -3 -4 hvcurveto
          -113 -95 -7 38 -6 32 -2 6 rlinecurve
          15 -19 -54 11 -26 hhcurveto
          -11 -14 -71 -90 -88 hvcurveto
          23 -24 43 35 35 54 9 14 rlinecurve
          5 -17 6 -39 9 -46 -144 -121 rcurveline
          -1 -1 12 callgsubr
          vvcurveto
          -4 29 -19 9 vhcurveto
          118 97 4 -19 5 -19 5 -18 rlinecurve
          -23 6 34 -12 41 hhcurveto
          46 120 107 44 43 hvcurveto
          -76 callgsubr
          -104 -95 -21 hhcurveto
          -13 -2 8 4 -2 hvcurveto
          endchar
        </CharString>
        <CharString name="y">
          -96 callgsubr
          endchar
        </CharString>
        <CharString name="yacute">
          -96 callgsubr
          370 761 -101 callsubr
        </CharString>
        <CharString name="ycircumflex">
          -96 callgsubr
          351 650 -105 callgsubr
        </CharString>
        <CharString name="ydieresis">
          -96 callgsubr
          248 738 -93 callsubr
        </CharString>
        <CharString name="yen">
          108 485 368 rmoveto
          -87 hlineto
          51 66 44 74 47 74 -15 28 -46 72 -28 31 -43 -127 -16 -106 -118 -153 -9 67 -11 159 -4 73 -7 4 -87 60 -39 19 12 -88 27 -135 27 -120 -43 -1 -31 -2 -4 -1 rrcurveto
          5 callgsubr
          -2 4 51 0 63 hhcurveto
          9 -37 -1 -4 -1 -5 -2 -4 rlinecurve
          -72 -1 -62 -2 -6 -2 0 callgsubr
          4 -2 66 -1 75 1 -19 -65 -17 -54 -15 -44 6 -18 46 -22 48 -33 52 236 rcurveline
          132 2 0 callsubr
          rlinecurve
          -142 -1 1 7 2 6 2 7 rlinecurve
          31 30 121 2 0 callsubr
          rlinecurve
          endchar
        </CharString>
        <CharString name="ygrave">
          -96 callgsubr
          293 656 -83 callsubr
        </CharString>
        <CharString name="z">
          -88 callgsubr
          endchar
        </CharString>
        <CharString name="zacute">
          -88 callgsubr
          370 759 -101 callsubr
        </CharString>
        <CharString name="zcaron">
          -88 callgsubr
          178 781 -95 callsubr
        </CharString>
        <CharString name="zdotaccent">
          -88 callgsubr
          313 726 -87 callgsubr
        </CharString>
        <CharString name="zero">
          158 567 595 rmoveto
          35 -17 -57 67 -47 hhcurveto
          -121 -115 -134 -133 -23 hvcurveto
          -30 -6 -35 -7 -15 -6 rrcurveto
          -96 -120 -22 -105 -82 vvcurveto
          -21 5 -37 2 -7 vhcurveto
          -36 10 70 -78 44 hhcurveto
          224 237 341 225 39 -5 34 -9 31 hvcurveto
          -369 -306 rmoveto
          17 -5 74 -9 25 5 rrcurveto
          7 -18 54 61 vvcurveto
          170 108 71 67 20 11 -17 -19 -248 -265 -358 -133 -13 -17 22 22 93 59 116 52 90 vhcurveto
          2 -27 6 -15 5 -13 rrcurveto
          endchar
        </CharString>
      <CharString index="0">
        551 676 rmoveto
        -72 callsubr
        -87 49 -71 -85 callsubr
        -22 15 45 -64 37 hhcurveto
        23 12 3 4 9 hvcurveto
        74 32 79 68 75 89 -44 callgsubr
        -34 22 -33 -36 callgsubr
        217 120 vvcurveto
        16 -3 12 -3 7 vhcurveto
        -346 -287 -51 callsubr
        -197 -117 -162 vhcurveto
        -25 51 -14 52 43 vvcurveto
        return
      </CharString>
      <CharString index="1">
        -21 232 43 rmoveto
        -15 callgsubr
        vhcurveto
        -68 callsubr
        -14 -39 rlineto
        -133 -71 -62 -53 -11 -85 callgsubr
        -108 -60 callsubr
        18 12 55 40 59 80 rrcurveto
        -11 -39 -9 -32 -10 vvcurveto
        -24 37 -31 22 46 119 102 44 43 vhcurveto
        -76 callgsubr
        -100 -84 -57 callsubr
        hvcurveto
        return
      </CharString>
      <CharString index="2">
        rmoveto
        -6 28 -8 66 -4 36 -17 10 -18 8 -29 4 -33 -33 -53 -54 -45 -41 11 -12 8 -6 7 -10 43 33 30 25 33 29 7 -35 11 -32 9 -25 20 3 17 3 callsubr
        rrcurveto
        endchar
      </CharString>
      <CharString index="3">
        -8 12 -64 80 -20 28 -55 -130 -96 -413 -289 -147 2 221 105 275 167 151 -24 29 -46 50 -27 28 12 callsubr
        -157 -119 -298 -225 vvcurveto
        -49 -1 -32 16 -21 vhcurveto
        -25 19 35 -43 28 hhcurveto
        35 54 43 95 99 hvcurveto
        0 return
      </CharString>
      <CharString index="4">
        200 605 655 rmoveto
        -102 callsubr
        177 320 314 323 77 -14 8 -9 16 hvcurveto
        return
      </CharString>
      <CharString index="5">
        235 432 -110 rmoveto
        -99 callgsubr
        52 51 63 96 vhcurveto
        -28 -62 -33 -74 -34 -97 rrcurveto
        return
      </CharString>
      <CharString index="6">
        -27 13 -13 -23 -52 -75 -33 -41 5 -6 24 -20 6 -4 43 34 44 41 36 45 rrcurveto
        return
      </CharString>
      <CharString index="7">
        -99 callsubr
        78 58 43 45 rrcurveto
        -16 -50 3 -17 -11 vvcurveto
        return
      </CharString>
      <CharString index="8">
        85 256 35 160 105 272 -104 callgsubr
        return
      </CharString>
      <CharString index="9">
        hhcurveto
        106 179 161 46 33 hvcurveto
        -97 callsubr
        return
      </CharString>
      <CharString index="10">
        463 441 28 rmoveto
        80 13 91 0 vhcurveto
        37 53 25 37 63 vvcurveto
        13 -4 7 -3 4 vhcurveto
        17 -13 -52 52 -17 hhcurveto
        -37 -23 -127 -121 -12 hvcurveto
        -62 -86 -80 -74 -85 -52 39 162 54 226 -66 callgsubr
        68 28 77 57 82 84 rrcurveto
        -2 -33 -1 -29 -18 vvcurveto
        -13 7 -20 3 -5 vhcurveto
        -14 8 29 -41 26 hhcurveto
        2 6 1 3 6 hvcurveto
        146 63 281 288 60 345 -145 143 rcurveline
        1 -6 7 -19 -44 vvcurveto
        -232 -154 -325 -186 -130 vhcurveto
        7 0 10 13 vvcurveto
        return
      </CharString>
      <CharString index="11">
        -32 371 146 rmoveto
        -46 -40 -50 -37 -48 -35 13 48 13 53 30 91 rrcurveto
        -28 callgsubr
        -2 -9 -28 -43 -13 vhcurveto
        -111 -64 -54 -45 -10 -85 callgsubr
        -102 -60 callsubr
        17 11 51 33 56 72 -17 -53 -18 -56 -19 -50 rrcurveto
        -121 -86 -94 -75 -82 vvcurveto
        -23 44 -36 21 64 109 114 130 57 vhcurveto
        16 38 12 30 9 28 61 43 64 47 58 52 rrcurveto
        -453 -428 3 callgsubr
        76 83 58 49 41 hvcurveto
        -83 -38 -65 -99 -24 hhcurveto
        return
      </CharString>
      <CharString index="12">
        106 214 -27 rmoveto
        37 3 49 36 43 45 rrcurveto
        -10 12 17 -6 19 hhcurveto
        41 41 23 -20 callgsubr
        -31 -25 -32 hhcurveto
        -14 -10 3 8 -6 hvcurveto
        41 50 30 54 29 -1 callgsubr
        -24 -25 -32 -84 -42 vvcurveto
        -13 1 -12 3 -10 vhcurveto
        -36 -28 -34 -33 -21 -9 callgsubr
        31 112 -31 callgsubr
        -23 -63 -29 -66 -9 -69 rrcurveto
        -34 -27 -30 -30 -20 -9 callgsubr
        37 130 -31 callgsubr
        rrcurveto
        -28 -76 -42 -98 -86 vvcurveto
        -35 62 -37 20 vhcurveto
        29 2 36 25 33 32 rrcurveto
        -31 12 50 -28 18 hhcurveto
        return
      </CharString>
      <CharString index="13">
        -107 292 -80 callgsubr
        -84 -142 -83 -160 -45 callsubr
        -172 122 -15 callsubr
        -49 -42 -48 -23 callgsubr
        return
      </CharString>
      <CharString index="14">
        rmoveto
        -10 4 -12 5 -26 7 rrcurveto
        -35 -10 -22 -42 -42 hhcurveto
        -8 -3 4 5 19 16 35 5 11 hvcurveto
        2 -9 -39 2 -20 hhcurveto
        -12 -23 -6 -33 -19 vvcurveto
        -37 32 -15 40 87 26 78 32 13 vhcurveto
        endchar
      </CharString>
      <CharString index="15">
        -63 callsubr
        9 2 6 8 4 hvcurveto
        62 147 73 64 25 30 1 1 rcurveline
        -23 -58 -30 -78 callsubr
        -14 -35 -20 -94 -81 vhcurveto
        8 22 25 callsubr
        21 rrcurveto
        return
      </CharString>
      <CharString index="16">
        80 34 rmoveto
        -6 -3 4 20 30 7 58 18 71 hvcurveto
        76 71 72 93 -47 callgsubr
        -147 2 callsubr
        -39 -85 -35 -147 -65 -64 callgsubr
        78 358 rmoveto
        182 80 75 -30 callsubr
        -28 -38 -40 -47 vhcurveto
        9 23 9 24 11 24 rrcurveto
        return
      </CharString>
      <CharString index="17">
        269 721 602 rmoveto
        41 -2 -68 80 -44 -79 callgsubr
        35 5 6 -13 -25 vvcurveto
        -95 -85 -161 -249 -85 vhcurveto
        29 -188 62 -199 15 -43 36 10 67 22 35 11 -40 69 -64 108 -53 129 rrcurveto
        215 92 92 159 133 vvcurveto
        -719 -606 -33 callgsubr
        return
      </CharString>
      <CharString index="18">
        -213 9 -27 rmoveto
        46 115 103 44 43 hvcurveto
        -87 callsubr
        -49 callgsubr
        vhcurveto
        return
      </CharString>
      <CharString index="19">
        -69 331 144 rmoveto
        -35 -34 -45 -36 -48 -37 -11 18 -15 12 -18 5 rrcurveto
        37 32 33 46 63 vvcurveto
        7 0 16 -5 6 vhcurveto
        25 -21 -59 33 -26 hhcurveto
        -33 -34 -85 -79 -83 hvcurveto
        7 -8 16 -17 0 vvcurveto
        58 64 30 63 21 hhcurveto
        12 2 -25 -4 -44 -56 -53 -65 -39 hvcurveto
        -3 67 -47 7 3 vhcurveto
        6 17 7 3 9 hhcurveto
        16 2 -14 -4 -11 -2 -13 -3 -13 hvcurveto
        -127 -97 -122 -95 -66 vvcurveto
        -18 36 -50 36 -3 vhcurveto
        74 200 191 148 hvcurveto
        5 -1 5 4 vvcurveto
        47 39 48 40 44 42 rrcurveto
        -427 -416 rmoveto
        -2 -2 1 3 45 72 66 95 79 hvcurveto
        -95 -46 -80 -99 -37 hhcurveto
        return
      </CharString>
      <CharString index="20">
        -98 callsubr
        endchar
      </CharString>
      <CharString index="21">
        210 288 -490 rmoveto
        177 606 88 215 104 247 -104 callgsubr
        47 47 59 87 vhcurveto
        -120 -239 -67 -158 -54 -162 42 -42 29 -31 41 -42 rrcurveto
        return
      </CharString>
      <CharString index="22">
        -31 callsubr
        67 140 6 13 hvcurveto
        7 -70 33 -25 4 vhcurveto
        -50 callsubr
        return
      </CharString>
      <CharString index="23">
        181 657 653 rmoveto
        -46 callsubr
        13 1 76 hvcurveto
        -52 -180 -256 -49 -2 callgsubr
        165 229 153 138 33 -50 85 -34 -63 -72 -12 -2 -91 hvcurveto
        -66 callsubr
        return
      </CharString>
      <CharString index="24">
        125 472 351 rmoveto
        -48 callgsubr
        -58 32 70 -68 50 hhcurveto
        105 130 152 53 47 hvcurveto
        -67 callgsubr
        return
      </CharString>
      <CharString index="25">
        -5 6 -13 9 -7 8 rrcurveto
        -57 -60 -76 -64 -87 hhcurveto
        -18 -8 5 14 73 63 126 42 5 3 -4 -6 hvcurveto
        -24 -47 -47 -14 vvcurveto
        -4 2 -1 6 38 71 38 25 6 vhcurveto
        29 -61 62 -18 -118 -108 -118 -112 -26 callgsubr
        return
      </CharString>
      <CharString index="26">
        rmoveto
        22 -11 -57 98 -57 hhcurveto
        -80 -258 -53 -190 -82 56 -52 25 -15 hvcurveto
        16 2 58 5 66 13 rrcurveto
        -88 56 -22 59 35 vvcurveto
        99 174 65 62 30 7 -13 -31 -85 -53 -125 -73 -123 vhcurveto
        10 -26 -31 6 -36 hhcurveto
        -177 -178 -218 -169 -17 5 -15 2 -5 hvcurveto
        -17 7 57 -87 33 hhcurveto
        99 165 174 193 125 hvcurveto
        -7 1 -7 -7 vvcurveto
        -63 -15 -67 -20 -41 vhcurveto
        76 29 47 31 0 6 1 11 15 vvcurveto
        64 -13 61 -32 47 vhcurveto
        74 127 52 127 84 vvcurveto
        22 -4 18 -7 10 vhcurveto
        -574 -721 rmoveto
        -4 -1 8 10 114 182 226 156 2 3 0 -1 2 hvcurveto
        -187 -118 -154 -170 -68 hhcurveto
        return
      </CharString>
      <CharString index="27">
        144 rmoveto
        -57 callgsubr
        8 hvcurveto
        115 51 -32 callgsubr
        return
      </CharString>
      <CharString index="28">
        hhcurveto
        -60 -64 -25 -42 -66 hvcurveto
        3 12 2 12 2 11 -17 27 -42 47 -52 21 -4 -68 -23 -96 -33 -103 -156 -158 -134 -214 -40 -131 -39 callgsubr
        116 63 145 322 71 228 90 80 88 59 61 13 rrcurveto
        return
      </CharString>
      <CharString index="29">
        43 -85 95 -57 -35 callgsubr
        vhcurveto
        -53 callsubr
        75 85 69 65 62 hvcurveto
        return
      </CharString>
      <CharString index="30">
        103 615 594 rmoveto
        -4 5 -58 84 -27 19 rrcurveto
        -13 -25 -14 -217 hhcurveto
        -130 -64 9 5 -29 hvcurveto
        26 -35 76 -75 30 -28 83 4 101 6 88 20 -197 -249 -203 -174 -162 -142 18 -26 28 -42 33 -34 112 -15 154 -13 61 -4 34 42 49 75 32 41 -67 -26 -245 1 -115 -4 rrcurveto
        128 81 361 287 142 202 rrcurveto
        return
      </CharString>
      <CharString index="31">
        -7 8 -9 -43 callgsubr
        -20 -23 return
      </CharString>
      <CharString index="32">
        85 7 -66 rmoveto
        -54 callgsubr
        78 145 151 295 72 210 5 callsubr
        -78 -305 -143 -323 -101 -175 rrcurveto
        return
      </CharString>
      <CharString index="33">
        rmoveto
        -79 callsubr
        return
      </CharString>
      <CharString index="34">
        -69 callgsubr
        -121 -156 -122 -137 return
      </CharString>
      <CharString index="35">
        -36 callsubr
        vvcurveto
        -2 1 -1 0 vhcurveto
        -25 callsubr
        55 111 156 314 48 181 -19 23 -59 55 -29 23 -9 -33 -84 -321 -94 -223 -37 callgsubr
        return
      </CharString>
      <CharString index="36">
        479 846 -7 callsubr
        -35 -37 -10 -18 -36 hvcurveto
        -27 21 -33 21 -19 14 -6 -21 -7 -22 -7 -23 rrcurveto
        22 -25 -29 16 -23 hhcurveto
        -35 callgsubr
        hvcurveto
        -53 callsubr
        63 70 49 54 58 hvcurveto
        -52 33 65 -51 66 -98 callgsubr
        -410 -240 rmoveto
        -144 -90 -110 -89 -30 hhcurveto
        -62 callsubr
        -14 -2 -13 -3 -13 hvcurveto
        -1 -6 -2 -5 -2 -5 rrcurveto
        -22 -35 -14 -40 -40 vvcurveto
        -54 24 -30 23 -23 vhcurveto
        -80 -38 -69 -55 -42 -68 rrcurveto
        return
      </CharString>
      <CharString index="37">
        8 -68 45 -20 -8 -42 -72 -24 -8 74 -36 10 11 43 77 10 vhcurveto
        return
      </CharString>
      <CharString index="38">
        54 46 54 93 74 vvcurveto
        43 -67 71 -44 24 vhcurveto
        7 -13 -24 3 -33 hhcurveto
        return
      </CharString>
      <CharString index="39">
        279 688 -4 callsubr
        -62 hvcurveto
        2 -5 callgsubr
        -49 -54 -46 -61 -40 -61 -49 -1 -37 -2 -4 -1 5 callgsubr
        -1 3 29 -1 42 hhcurveto
        -53 -96 -34 -92 -65 -2 callsubr
        -13 31 -36 60 -38 -13 callgsubr
        -249 -279 rmoveto
        -132 hlineto
        20 64 16 63 12 57 rrcurveto
        86 86 83 62 55 hhcurveto
        28 15 -32 -28 -181 -137 -386 -325 -48 hvcurveto
        44 68 44 99 36 106 128 1 rcurveline
        1 callsubr
        -405 -339 rmoveto
        -4 2 -3 7 12 vvcurveto
        50 48 95 70 102 vhcurveto
        15 hlineto
        -49 -161 -54 -118 -23 11 rrcurveto
        endchar
      </CharString>
      <CharString index="40">
        -22 23 -75 60 1 vvcurveto
        -44 -33 -130 -160 -56 hhcurveto
        -22 -12 9 40 209 283 448 124 15 15 -8 -40 -79 -89 -109 -58 -36 hvcurveto
        return
      </CharString>
      <CharString index="41">
        70 205 rrcurveto
        1 -75 99 31 -30 hvcurveto
        -88 -274 -68 -330 -102 vvcurveto
        -13 4 -11 3 -5 vhcurveto
        -14 8 33 -48 26 hhcurveto
        2 6 1 3 7 hvcurveto
        return
      </CharString>
      <CharString index="42">
        160 561 644 -81 callgsubr
        return
      </CharString>
      <CharString index="43">
        vvcurveto
        -6 24 callsubr
        -4 vhcurveto
        -20 4 56 -67 40 hhcurveto
        -61 callgsubr
        -109 -90 -31 hhcurveto
        return
      </CharString>
      <CharString index="44">
        -14 245 49 rmoveto
        0 -19 4 -42 59 vhcurveto
        82 50 61 73 -1 13 rrcurveto
        9 -5 -29 38 -16 hhcurveto
        -17 -67 -18 -175 -122 hvcurveto
        8 32 9 34 10 33 rrcurveto
        181 174 119 179 86 vvcurveto
        6 -1 4 -2 3 vhcurveto
        15 -13 -49 41 -15 hhcurveto
        -4 -6 -1 -4 -6 hvcurveto
        -168 -105 -173 -360 -173 vvcurveto
        -13 1 -9 5 -7 vhcurveto
        -29 20 35 -34 20 hhcurveto
        6 2 3 4 1 hvcurveto
        4 6 25 45 23 29 rrcurveto
        -42 25 -13 callsubr
        -52 394 rmoveto
        129 65 59 75 15 hhcurveto
        3 0 -3 -2 -58 -58 -117 -145 -165 hvcurveto
        20 53 21 49 20 39 rrcurveto
        return
      </CharString>
      <CharString index="45">
        -64 callsubr
        endchar
      </CharString>
      <CharString index="46">
        -22 callgsubr
        hvcurveto
        -76 callgsubr
        return
      </CharString>
      <CharString index="47">
        rmoveto
        -14 -242 -17 -19 -24 callsubr
        14 232 2 28 -16 callsubr
        return
      </CharString>
      <CharString index="48">
        hhcurveto
        -2 -1 1 2 return
      </CharString>
      <CharString index="49">
        118 517 -80 callgsubr
        -29 -35 -10 -19 -34 vhcurveto
        -11 9 -24 14 -12 4 -29 callgsubr
        -198 -26 -104 -150 -88 -55 callsubr
        63 46 53 45 rrcurveto
        -1 -9 0 -11 -10 vvcurveto
        -45 callsubr
        -376 21 rmoveto
        -42 callgsubr
        70 106 75 99 29 hvcurveto
        -35 -24 -32 -36 -19 -45 rrcurveto
        -5 -3 -4 -4 0 vvcurveto
        204 101 -15 callsubr
        -48 -41 -48 -31 hvcurveto
        64 20 40 59 25 hhcurveto
        return
      </CharString>
      <CharString index="50">
        -60 -64 -65 -62 -86 hhcurveto
        -24 -7 6 20 7 0 8 1 return
      </CharString>
      <CharString index="51">
        269 678 -4 callsubr
        -61 hvcurveto
        1 -5 callgsubr
        rrcurveto
        -145 -161 -118 -215 -122 -2 callsubr
        -12 31 -36 60 -39 -13 callgsubr
        -333 -95 rmoveto
        86 86 84 62 54 hhcurveto
        28 15 -32 -28 -181 -136 -386 -327 -48 hvcurveto
        81 123 78 230 37 174 rrcurveto
        -321 -523 rmoveto
        -4 2 -3 7 12 vvcurveto
        55 61 112 83 115 vhcurveto
        -52 -178 -61 -136 -24 11 rrcurveto
        return
      </CharString>
      <CharString index="52">
        -206 198 146 rmoveto
        -49 -31 -49 -30 -48 -30 11 43 13 49 26 79 rrcurveto
        -28 callgsubr
        -7 -46 -179 -144 -51 vhcurveto
        -18 callsubr
        22 50 12 35 11 34 61 39 64 39 58 40 rrcurveto
        return
      </CharString>
      <CharString index="53">
        -1 -1 5 6 7 13 95 -15 97 -16 118 -6 31 30 35 42 21 28 rrcurveto
        5 -140 -142 0 -77 hhcurveto
        return
      </CharString>
      <CharString index="54">
        rmoveto
        -3 10 -7 37 -4 16 rrcurveto
        -12 -22 -33 -10 -14 hhcurveto
        -8 -7 5 9 return
      </CharString>
      <CharString index="55">
        hhcurveto
        -95 -164 -99 -157 -55 23 -52 16 -18 hvcurveto
        return
      </CharString>
      <CharString index="56">
        rmoveto
        13 0 26 -10 20 vhcurveto
        8 -4 -63 67 -20 hhcurveto
        -140 -107 -128 -145 -35 56 -62 45 97 146 124 112 hvcurveto
        -260 -159 rmoveto
        27 23 63 41 61 vhcurveto
        65 42 48 24 19 hhcurveto
        -16 53 -124 -251 -90 hhcurveto
        -8 -4 16 11 hvcurveto
        return
      </CharString>
      <CharString index="57">
        10 -2 -63 41 -9 hhcurveto
        -3 -2 -1 9 callsubr
        return
      </CharString>
      <CharString index="58">
        -40 callgsubr
        -11 callsubr
        return
      </CharString>
      <CharString index="59">
        84 72 66 117 78 vvcurveto
        53 -79 91 -54 -258 -241 -431 -201 -18 0 -33 20 -36 vhcurveto
        return
      </CharString>
      <CharString index="60">
        0 vvcurveto
        122 156 25 75 31 vvcurveto
        8 -1 4 -5 5 vhcurveto
        -8 10 -28 30 -25 9 rrcurveto
        -23 return
      </CharString>
      <CharString index="61">
        -3 -10 1 -11 -24 -13 -21 -9 -16 rrcurveto
        19 return
      </CharString>
      <CharString index="62">
        709 -54 callsubr
        return
      </CharString>
      <CharString index="63">
        35 -34 35 -24 25 -11 9 4 11 7 10 8 return
      </CharString>
      <CharString index="64">
        10 -28 callsubr
        return
      </CharString>
      <CharString index="65">
        -38 -46 -39 -32 -18 2 callgsubr
        3 5 return
      </CharString>
      <CharString index="66">
        -7 8 -26 28 -101 callgsubr
        return
      </CharString>
      <CharString index="67">
        20 -65 38 -8 -7 -67 -172 -87 -19 vhcurveto
        return
      </CharString>
      <CharString index="68">
        -3 -13 0 -14 5 -10 5 -10 51 -75 24 29 callgsubr
        13 5 10 5 rrcurveto
        return
      </CharString>
      <CharString index="69">
        8 20 13 44 5 30 -13 -7 -172 -99 -2 -6 -13 -30 -6 -30 -5 -22 22 -24 71 -67 29 -22 13 16 21 30 13 25 rrcurveto
        0 -63 36 -49 42 vhcurveto
        67 32 61 32 0 vvcurveto
        return
      </CharString>
      <CharString index="70">
        rrcurveto
        0 10 48 89 vvcurveto
        95 -10 146 -55 156 vhcurveto
        57 138 121 11 144 hhcurveto
        112 61 -6 -3 64 hvcurveto
        return
      </CharString>
      <CharString index="71">
        31 -28 33 rrcurveto
        135 170 109 return
      </CharString>
      <CharString index="72">
        -222 -234 -362 -231 -39 return
      </CharString>
      <CharString index="73">
        238 387 rmoveto
        -14 9 -55 29 -19 6 -10 -42 -13 -45 -12 -43 rrcurveto
        -3 -44 -35 -2 -7 -24 callsubr
        93 hlineto
        -14 -45 -14 -38 -9 -18 13 -3 23 -6 14 -4 20 31 23 40 22 44 rrcurveto
        1 49 43 0 11 -16 callsubr
        -6 -42 -3 -3 -50 hvcurveto
        11 26 11 28 10 26 rrcurveto
        return
      </CharString>
      <CharString index="74">
        rmoveto
        -3 -2 2 4 63 77 122 103 123 hvcurveto
        -171 -69 -76 -143 -30 hhcurveto
        return
      </CharString>
      <CharString index="75">
        78 49 44 vvcurveto
        27 -44 54 -40 return
      </CharString>
      <CharString index="76">
        29 59 hvcurveto
        -27 24 -33 18 -33 15 return
      </CharString>
      <CharString index="77">
        -45 callgsubr
        -8 -431 rmoveto
        14 -31 66 -10 -1 12 callgsubr
        -1 vhcurveto
        -38 -70 -59 -71 -66 -55 4 -8 27 -43 15 -12 rrcurveto
        1 24 35 0 return
      </CharString>
      <CharString index="78">
        rrcurveto
        1 -2 25 callgsubr
        hhcurveto
        return
      </CharString>
      <CharString index="79">
        1 3 1 3 3 vvcurveto
        14 -68 46 -8 return
      </CharString>
      <CharString index="80">
        rmoveto
        -2 -1 2 2 47 58 47 85 61 hvcurveto
        -70 -35 -79 -89 -26 hhcurveto
        return
      </CharString>
      <CharString index="81">
        -14 1 -9 4 -7 vhcurveto
        -38 20 41 -32 23 hhcurveto
        return
      </CharString>
      <CharString index="82">
        -33 -30 vhcurveto
        -27 -10 9 -4 hhcurveto
        -4 -12 -17 -3 hvcurveto
        return
      </CharString>
      <CharString index="83">
        8 -52 35 -23 -12 -36 -69 -27 -20 callsubr
        return
      </CharString>
      <CharString index="84">
        -30 hvcurveto
        63 21 40 60 25 hhcurveto
        return
      </CharString>
      <CharString index="85">
        46 115 103 44 43 return
      </CharString>
      <CharString index="86">
        vvcurveto
        -122 -92 -199 -76 -7 -4 5 10 -82 callsubr
        169 104 280 162 return
      </CharString>
      <CharString index="87">
        54 -22 callsubr
        11 -28 callsubr
        -39 -42 return
      </CharString>
      <CharString index="88">
        -24 44 -15 10 vhcurveto
        -1 1 return
      </CharString>
      <CharString index="89">
        -25 -47 vhcurveto
        -45 -84 -29 3 -11 vvcurveto
        -18 55 -31 23 51 117 89 61 64 vhcurveto
        24 callgsubr
        0 -97 -92 -75 -32 vhcurveto
        45 44 45 90 61 vvcurveto
        8 -1 9 -7 7 vhcurveto
        14 -13 -32 37 -20 hhcurveto
        -16 -47 -23 return
      </CharString>
      <CharString index="90">
        -37 -49 10 -11 15 -14 19 -10 70 92 return
      </CharString>
      <CharString index="91">
        -12 vvcurveto
        -25 24 36 -27 22 hhcurveto
        return
      </CharString>
      <CharString index="92">
        24 41 114 19 54 return
      </CharString>
      <CharString index="93">
        rmoveto
        11 23 14 36 7 38 -17 -9 -243 -94 -4 -7 -18 -30 -16 -45 -6 -28 12 -7 153 -89 27 -15 17 20 26 38 16 31 rrcurveto
        0 -73 27 -97 46 vhcurveto
        135 47 56 18 0 vvcurveto
        endchar
      </CharString>
      <CharString index="94">
        285 60 162 305 7 253 1 51 -6 23 -17 22 rrcurveto
        return
      </CharString>
      <CharString index="95">
        rmoveto
        -4 -2 3 5 29 75 89 75 50 hvcurveto
        -10 -32 -9 -31 -6 -30 rrcurveto
        -50 -53 -45 -33 -21 hhcurveto
        return
      </CharString>
      <CharString index="96">
        -77 vvcurveto
        -20 40 -49 21 64 105 96 130 57 vhcurveto
        return
      </CharString>
      <CharString index="97">
        -223 338 -45 callgsubr
        endchar
      </CharString>
      <CharString index="98">
        6 callgsubr
        5 24 return
      </CharString>
      <CharString index="99">
        37 -38 36 -90 -312 -134 -326 -87 -169 18 -13 return
      </CharString>
      <CharString index="100">
        hmoveto
        -6 callsubr
      </CharString>
      <CharString index="101">
        48 -74 callgsubr
        return
      </CharString>
      <CharString index="102">
        22 rlineto
        0 -48 51 -75 46 vhcurveto
        -3 -80 -12 -90 -18 -90 return
      </CharString>
      <CharString index="103">
        28 328 255 rmoveto
        -14 -233 -15 22 callgsubr
        -12 -52 29 callsubr
        -4 11 221 4 23 hhcurveto
        8 12 17 64 5 23 rrcurveto
        endchar
      </CharString>
      <CharString index="104">
        rrcurveto
        -11 callsubr
        return
      </CharString>
      <CharString index="105">
        -108 15 11 -20 65 -77 22 -18 rrcurveto
        return
      </CharString>
      <CharString index="106">
        vvcurveto
        -2 14 -38 33 -30 11 rrcurveto
        return
      </CharString>
      <CharString index="107">
        23 callsubr
        -37 -4 -15 return
      </CharString>
      <CharString index="108">
        203 121 -1 callsubr
        -142 -271 -152 -429 return
      </CharString>
      <CharString index="109">
        hhcurveto
        -5 -2 return
      </CharString>
      <CharString index="110">
        rmoveto
        11 callsubr
        return
      </CharString>
      <CharString index="111">
        vvcurveto
        3 -1 9 -4 5 vhcurveto
        -12 15 -33 34 -30 9 return
      </CharString>
      <CharString index="112">
        0 callgsubr
        rrcurveto
        return
      </CharString>
      <CharString index="113">
        2 callgsubr
        5 return
      </CharString>
      <CharString index="114">
        -48 -23 -73 -70 hvcurveto
        5 17 6 17 7 18 return
      </CharString>
      <CharString index="115">
        hhcurveto
        1 callsubr
        return
      </CharString>
      <CharString index="116">
        vhcurveto
        -7 8 return
      </CharString>
      <CharString index="117">
        rmoveto
        6 -57 38 -16 -7 -35 -60 -20 -7 62 -30 8 9 36 64 9 vhcurveto
        return
      </CharString>
      <CharString index="118">
        -71 -62 -53 -11 -31 callsubr
        return
      </CharString>
      <CharString index="119">
        -1 -1 -2 return
      </CharString>
      <CharString index="120">
        31 rrcurveto
        endchar
      </CharString>
      <CharString index="121">
        -24 4 rrcurveto
        -2 -1 1 9 callsubr
        return
      </CharString>
      <CharString index="122">
        hhcurveto
        -8 callsubr
        hvcurveto
        -29 callsubr
        return
      </CharString>
      <CharString index="123">
        40 34 14 27 18 26 rrcurveto
        0 return
      </CharString>
      <CharString index="124">
        23 callgsubr
        hvcurveto
        22 63 return
      </CharString>
      <CharString index="125">
        rmoveto
        196 112 55 74 24 21 callsubr
        return
      </CharString>
      <CharString index="126">
        -21 hhcurveto
        endchar
      </CharString>
      <CharString index="127">
        29 callsubr
        -4 11 314 4 23 hhcurveto
        8 12 return
      </CharString>
      <CharString index="128">
        -4 -1 -7 -11 -24 -37 29 callsubr
        -1 3 return
      </CharString>
      <CharString index="129">
        -6 -15 hvcurveto
        -7 -11 return
      </CharString>
      <CharString index="130">
        -20 -23 -97 -86 -57 callsubr
        return
      </CharString>
      <CharString index="131">
        -22 24 rlineto
        return
      </CharString>
      <CharString index="132">
        -1 -1 -1 return
      </CharString>
      <CharString index="133">
        4 8 hvcurveto
        return
      </CharString>
      <CharString index="134">
        -34 -3 -33 -3 -32 -1 67 48 return
      </CharString>
      <CharString index="135">
        1 8 callsubr
        return
      </CharString>
      <CharString index="136">
        2 21 2 return
      </CharString>
</ttFont>
